<?xml version="1.0" encoding="utf-8"?>
<!-- Generator: Adobe Illustrator 24.1.0, SVG Export Plug-In . SVG Version: 6.00 Build 0)  -->
<svg version="1.1" id="Слой_1" xmlns="http://www.w3.org/2000/svg" xmlns:xlink="http://www.w3.org/1999/xlink" x="0px" y="0px"
	 viewBox="0 0 612 792" style="enable-background:new 0 0 612 792;" xml:space="preserve">
<style type="text/css">
	.st0{opacity:0.5;}
	.st1{fill:#FEFEFE;}
	.st2{fill:#6FC478;}
	.st3{fill:#4FB4B8;}
	.st4{fill:#CCCCCC;}
	.st5{fill:#3BA6CA;}
	.st6{fill:#1B85AA;}
	.st7{fill:#A7CFAF;}
	.st8{fill:#B2D9E5;}
	.st9{fill:#87CBDC;}
	.st10{fill:#65B76F;}
	.st11{fill:#7EC9DF;}
	.st12{fill:#53AFCB;}
	.st13{fill:#71C673;}
	.st14{fill:#69BE72;}
	.st15{fill:#58AD5B;}
	.st16{fill:#1A344C;}
</style>
<g>
	<g class="st0">
		<path class="st1" d="M582.64,301.75c0,100.14-0.03,200.29,0.11,300.43c0.01,3.99-0.67,4.93-4.84,4.93
			c-200.7-0.13-401.4-0.14-602.1,0.02c-4.6,0-5.05-1.31-5.05-5.31c0.1-200.48,0.11-400.97-0.02-601.45c0-4.19,0.72-5.23,5.13-5.23
			c200.5,0.14,401,0.14,601.5,0c4.71,0,5.36,1.33,5.36,5.6C582.61,101.07,582.64,201.41,582.64,301.75z M313.05,505.28
			c1.74,2.06,3.44,2.31,5.05-0.15c7.6,0.54,15.21,1.34,22.78-0.26c1.06,0.06,2.12,0.12,3.18,0.18c-0.27,3.62,2.45,2.88,4.44,2.9
			c6.48,0.08,12.96,0.03,19.45,0.03c0.83,1.25,1.66,1.23,2.47-0.01c1.16-0.04,2.32-0.08,3.47-0.12c2.33,0.27,4.71,0.97,6.98,0.73
			c20.9-2.23,40.95-8.08,60.5-15.45c9.62-3.63,17.03-9.94,19.35-21.17c1.53-7.38,6.46-13.01,13.73-16.01
			c8.37-3.46,16.99-6.38,25.11-10.33c12.22-5.95,24.67-11.81,32.84-23.51c0.44-1.58,0.88-3.17,1.33-4.75
			c2.78-2.84,7.71-2.6,9.59-6.71c1.96,0.25,2.13-1.29,2.56-2.56c5.9-4.31,7.09-9.98,3.59-15.83c-3.4-5.69-8.54-9.29-14.33-11.87
			c-8.89-3.95-17.71-8.46-27.95-7.55c-0.71-0.08-1.43-0.17-2.14-0.25c-4.63-3.82-10.01-3.02-15.34-2.47
			c-1.29-0.09-2.58-0.18-3.86-0.27c-0.04-1.43-0.36-2.56-2.21-1.97c-1.95-0.25-3.92-1.19-5.85,0.09c-1.08-0.14-2.15-0.28-3.23-0.41
			c-5.11-3.83-11.48-3.39-17.23-5.02c-2.82-3.93,0.56-6.67,1.98-9.69c3.88-8.21,9.02-16.7,5.55-25.79
			c-5.12-13.43-13.98-24.6-25.49-33.47c-0.41-0.42-0.82-0.84-1.23-1.25c0.16-1.7-0.61-2.47-2.31-2.33l-0.07-0.07
			c0.3-1.86-0.87-3.05-2.12-4c-5.3-4.01-6.41-9.37-6.31-15.74c0.2-11.97,4.15-23.26,5.56-35.01c2.03-16.93-2.78-31.39-14.68-43.15
			c-13.64-13.48-31.1-18.06-49.7-18.89c-15.11-0.67-29.73,3.22-44.51,5.44c-5.67,0.85-9.9-0.05-13.94-4.16
			c-2.66-2.7-4.55-6.65-9.01-7.16c-0.44-0.43-0.88-0.86-1.31-1.28c-7.44-12.36-18.6-21.68-30.64-27.98
			c-26.72-13.98-53.8-9.94-79,5.29c-16.11,9.73-28.44,23.68-38.07,39.88c-15.06,25.31-25.15,52.68-33.15,80.89
			c-5.33,18.8-14.29,34.94-31.22,46.01c-6.29,4.12-12.17,9.13-16.32,15.69c0,0-0.08,0.08-0.08,0.08c-2.25,0.67-3.47,2.51-4.71,4.27
			c-8.91,12.68-8.97,25.95-2.57,39.63c-8.05,1.27-15.63,4.09-22.91,7.55c-13.33,6.34-14.16,10.74-4.27,21.58
			c2.77,3.03,2.32,4.74-1.23,6.02c-5.02,1.81-10.12,3.4-15.15,5.21c-8.05,2.9-15.5,6.9-22.4,12c-6.06,4.47-8.63,15.15-3.72,19.54
			c0.18,0.63,0.36,1.25,0.55,1.88c-0.11,1.87,0.54,3.16,2.58,3.4c1.82,1.41,3.46,3.08,5.76,3.73c4.88,5.39,11.79,5.35,18.14,6.82
			c0.68,0.08,1.35,0.16,2.03,0.23c3.01,2.09,6.26,3.03,9.91,2.11c2.67,0.42,5.33,0.85,8,1.27c0.45,1.41,1.67,1.43,2.84,1.67
			c11.51,2.32,22.95,4.84,34.63,6.4c18.14,2.43,36.21,3,54.24,0.26c4.71-0.72,5.09,0.68,5.05,4.17c-1.36,0.82-2.07,2.08-2.42,3.58
			c-1.94,0.62-2.81,1.78-1.97,3.83c-0.03,1.34-0.07,2.69-0.1,4.03c-1.27,2.67,0.35,5,0.87,7.46c2.85,4.51,7.33,7,11.82,9.46
			c2.82,1.06,4.75,3.92,8.05,4.03c0.97,0.65,1.86,1.62,2.93,1.91c11.27,3.08,22.83,4.23,34.44,4.88
			c25.98,1.44,51.64-2.61,77.36-5.09c5.12-0.49,10.68,0.68,15.57-2.06c6.02-0.14,12.03-0.28,18.05-0.42
			c2.39,0.24,4.78,0.59,7.1-0.37C310.81,504.97,311.93,505.12,313.05,505.28z M296.91,522.3c5.52-0.29,11.06-0.57,15.96-3.52
			c3.65-2.2,3.66-7.58-0.21-8.95c-6.26-2.22-12.82-3.71-19.4-1.29c-4.12,1.52-9.06,3.65-8.3,8.71c0.75,4.92,6.03,4.75,10.16,5.05
			C295.72,522.34,296.31,522.3,296.91,522.3z M555.08,413.76c0,0-1.4-0.06-2.75,0.17c-2.37,0.42-3.94,1.87-4.16,4.31
			c-0.25,2.79,1.48,3.75,4,3.99c1.34,0.13,2.69,1.02,3.96,0.87c3.69-0.41,9.14,0.29,9.14-4.83
			C565.27,413.47,560.21,413.82,555.08,413.76z M100.49,475.76c-3.01,0.38-6.91-0.12-6.62,4.11c0.36,5.24,5.26,5.8,9.12,6.43
			c3.29,0.54,6.23-1.8,5.86-5.05C108.34,476.74,104.19,476.1,100.49,475.76z M334.2,511.34c-0.67-1.85-2.09-2.23-3.78-2.01
			c-1.71,0.22-2.4,1.63-2.19,2.93c0.26,1.65,1.91,1.76,3.33,1.6C333.05,513.71,334.14,513.01,334.2,511.34z M39.99,478.13
			c1.33-0.03,2.36-0.47,2.18-2.04c-0.18-1.57-1.18-2.47-2.75-2.47c-1.25,0-2.43,0.52-2.18,2.04
			C37.48,477.07,38.23,478.24,39.99,478.13z"/>
		<path class="st2" d="M299.71,165.97c0.44,0.43,0.88,0.86,1.31,1.28c1.91,4.84,6.49,7.34,9.69,11.04c1.43,1.65,3.02,3.17,5.51,3.06
			c19.37-0.8,38.74,3.34,58.12-0.01c1.83-0.32,4-0.74,5.6,1.02c-5.91,3.65-12.66,2.92-19.13,3.68c-11.14-3.05-22.52,0.93-33.7-1.15
			c-1.51-0.28-3.07,0.01-4.6,0.76c-3.22,1.57-13.16-0.96-15.69-3.71c-5.74-6.22-11.69-11.25-21.31-10.44
			c-7.37,0.62-12.77-5.77-12.97-13.18c-0.06-2.14,0.83-5.03-1.29-6.12c-6.8-3.48-11.78-9.74-19.7-11.64
			c-10.58-2.54-21.22-1.94-31.88-2.31c-9.56-0.33-16.6,3.81-21.13,11.71c-4.77,8.32-13.29,13.02-18.6,21.02
			c-3.65,5.49-7.93,10.31-10.16,16.78c-2.02,5.85-4.01,11.7-8.72,16.53c-4.62,4.74-8.39,10.76-8.83,17.74
			c-0.4,6.41-2.58,12.11-6.24,16.99c-4.7,6.25-7.19,13.15-8.02,20.68c-0.44,3.95,1.1,7.77,5.02,9.27
			c4.84,1.86,7.92,5.28,10.32,10.06c4.01-4.66,1.94-8.57,0.05-12.48c-3.77-7.78,2.62-18.5,11.06-18.52
			c5.96-0.01,11.93,0.24,17.87-0.08c4.24-0.23,6.84,1,7.65,5.36c0.42,2.25,1.29,4.32,4.12,4.22c11.88-0.41,23.61,1.29,35.41,2.14
			c15.61,1.13,31.36,0.29,47.05,0.27c5.06,0,8.67,1.49,8,7.54c-0.28,2.49,0.91,4.58,1.72,6.82c3.19,8.87,2.07,13.12-4.1,16.65
			c-0.79,0-1.59,0-2.38,0c-0.94,0.28-2.23,0.25-2.76,0.88c-5.1,6.07-12.25,8.95-18.94,12.57c-0.53,0.29-0.65,1.35-0.96,2.05
			c-2.39-0.33-3.47,1.09-4.53,2.98c-3.3,5.87-6.44,6.83-13.06,4.31c-6.43-2.45-15.4,0.52-19.1,6.48c-3.15,5.07-6.91,7.49-13.35,5.68
			c-7.25-2.04-9.75-0.3-12.61,6.45c-0.27,0.64-1.15,1.03-1.75,1.53c0.17-3.41-1.59-4.22-4.44-3.05c-3.47,1.42-6.81,3.09-8.67,6.65
			c-3.39,0.09-5.67-6.01-8.79-2.97c-4.66,4.54-10.37,5.82-15.93,8.11c-7.35,3.02-13.88,8.42-22.74,5.69
			c-1.91-0.59-4.48-0.76-6.31,0.78c-11.97,10.03-27.16,12.08-41.31,16.66c-2.29,0.74-4.83,0.77-6.91-0.66
			c-3.38-2.31-4.8,0.24-5.81,2.49c-0.77,1.7-0.56,3.85-0.78,5.8c-1.68-0.09-3.36-0.18-5.04-0.27c0.07-1.14,0.14-2.27,0.21-3.41
			c-0.12-0.77-0.11-1.59-0.38-2.3c-5.42-13.81-4.82-26.84,4.81-38.8c0.55-0.68,0.47-1.87,0.68-2.82c0,0,0.08-0.08,0.08-0.08
			c1.42-0.04,2.89-0.2,3.82-1.34c7.13-8.65,17.19-13.81,25.34-21.32c7.25-6.68,10.38-15.73,15.91-23.29
			c11.72-16.02,19.66-33.83,26.52-52.26c4.69-12.61,10.98-24.51,17.18-36.38c5.16-9.88,10.93-19.58,18.09-28.25
			c5.51-6.67,9.61-14.88,17.02-19.55c16.34-10.28,34.79-11.41,53.29-9.3c6.86,0.78,13.56,3.82,20.09,7.05
			c10.19,5.04,16.77,13.72,24.78,20.97C295.24,163.79,296.69,166.15,299.71,165.97z M112.78,328.09c0.05-4.13-1.78-5.96-6.12-6.12
			c-4.4-0.16-10.99,4.86-10.4,8.42c0.65,3.93,3.31,6.67,7.51,7.03C107.46,337.72,112.73,332.05,112.78,328.09z"/>
		<path class="st3" d="M65.92,373.15c1.68,0.09,3.36,0.18,5.04,0.26c-0.55,2.36,1.61,3.38,2.49,5.03c-0.72,2.99-2.38,5.96,0.37,8.88
			c3.45,3.65,7.14,6.61,12.38,7.49c2.67,0.45,6.11-0.17,7.72,3.17c-2.35,0.42-4.66,0.28-7.04-0.09c-8.6-1.33-17.13,0.7-23.09,6.31
			c-10.19,9.59-21.39,14.34-35.24,13.25c-2.01-0.16-4.52-0.83-5.51,2.08c-7.05,1.93-8.22,4.12-5.91,11.08c0.31,1.12,0.26,2.7,1,3.29
			c6.72,5.4,14,10.04,22.03,13.15c10.19,3.94,20.99,2.31,31.57,2.5c1.78,0.03,3.68,0.22,4.13-2.24c6.62-4.13,2.64-8.03-0.25-11.96
			c-1.8-3.82-2.8-7.8-2.43-12.06c0.92-3.52,3.99-4.42,6.79-5.87c6.83-3.54,15.52-2.97,20.97-9.51c0.96-0.16,1.89-0.39,2.04-1.57
			c0.19-1.48-0.79-1.95-2-2.2c-0.89-1.13-1.77-2.27-2.66-3.4c-0.7-0.86-1.41-1.73-2.12-2.59c9.89,0.47,13.2,4.84,9.5,13.59
			c-1.52,3.59,0.64,2.98,2.4,3.44c-0.29,1.3-1.06,1.96-2.43,2.15c-6.67,0.89-12.1,4.56-17.31,8.37c-5.57,4.08-5.48,8.36-1.88,14.19
			c1.97,3.19,6.12,3.66,7.33,7.26c-1.1,0.49-1.33,1.46-1.4,2.53c-2.94-1.42-5.58-2.69-5.98,2.52c-0.28,3.62-3.02,4.66-6.37,4.63
			c-6.1-0.06-12.25-0.45-18.29,0.15c-4.79,0.47-9.99-0.42-14.31,2.74c-1.93,1.16-4.41-0.19-6.26,1.36c-2.67-0.42-5.33-0.85-8-1.27
			c-2.85-2.82-6.25-3.06-9.91-2.11c-0.68-0.08-1.35-0.16-2.03-0.23c-5.3-4.25-11.91-5.04-18.14-6.82c-2.31-0.65-3.95-2.32-5.76-3.73
			c-0.11-1.7-0.49-3.19-2.58-3.4c-0.18-0.63-0.36-1.25-0.54-1.88c-0.38-4.45-2.15-9.35,1.35-13.04c4.9-5.17,10.58-9.69,17.27-12.27
			c10.28-3.97,20.79-7.35,31.22-10.94c2-0.69,3.74-1.74,3.92-3.96c0.19-2.31-1.89-2.55-3.52-3.31c-2.48-1.15-4.94-2.47-7.1-4.14
			c-3.33-2.58-5.34-5.72-1.18-9.29c2.52-2.16,5.02-4.6,8.77-4.38c2.1,0.12,4.01-0.58,5.53-1.85
			C55.01,374.7,60.49,374.02,65.92,373.15z"/>
		<path class="st4" d="M532.39,422.11c-8.17,11.7-20.62,17.56-32.84,23.51c-8.12,3.95-16.74,6.87-25.11,10.33
			c-7.26,3-12.2,8.64-13.73,16.01c-2.32,11.23-9.73,17.54-19.35,21.17c-19.55,7.37-39.6,13.22-60.5,15.45
			c-2.28,0.24-4.65-0.46-6.98-0.73c0.74-3.22,3.37-2.02,5.35-2.23c14.33-1.54,28.48-3.14,34.94-19.25c1.81-4.51,1.41-7.37-3.16-9.27
			c-0.07-0.43-0.14-0.86-0.21-1.29c1.61-2.95,3.05-6.92,6.71-6.91c11.27,0.02,21.51-4.7,32.39-6.3c2.97-0.44,6.17-1.19,7.42-4.67
			c0.4-0.05,0.8-0.09,1.21-0.14c1.58,0.13,2.39-0.58,2.37-2.19c0.78-0.07,1.57-0.14,2.35-0.2c4.15,0.33,6.08-1.67,6.04-5.75l0.1-0.1
			c7.21-1.53,9.99-6.19,7.77-14.8c-1.41-5.48,0.6-6.51,5.46-6.75c7.26-0.35,14.49-1.28,21.72-2.16
			C513.71,424.68,523.04,423.35,532.39,422.11z"/>
		<path class="st5" d="M545.87,408.08c-0.43,1.28-0.6,2.81-2.56,2.57c-0.5-1.77-1.68-1.39-2.7-0.71c-7.57,5.05-16.05,7.83-24.8,9.88
			c-1.31,0.31-2.14,0.86-2.42,2.17c-1.17,0.06-2.34,0.12-3.51,0.18c-2.22-2.04-5.01-1.3-7.34-0.87c-3.73,0.69-7.42,1.03-11.17,0.9
			c-5.74-0.2-11.41,0.33-17.06,1.25c-2.4,0.39-4.81,0.92-5.8,3.43c-0.97,2.47,0.77,4.09,2.37,5.6c2.68,2.55,3.32,6.02,1.28,8.57
			c-3.38,4.22-6.7,8.79-12,11.04c-0.93-1.07-1.95-0.78-3.2-0.54c-5.57,1.05-11.16,2.54-16.77,2.69c-13.9,0.37-27.75,0.44-39.97,8.49
			c-0.13-1.87,0.37-3.29,1.93-4.66c5.19-4.57,11.07-7.43,17.92-8.54c8.76-1.43,16.02-9.62,18.58-17.84
			c1.71-5.52-1.12-11.8,3.34-16.59c1.28-0.16,2.69,0.07,3.57-1.23c1.16-0.39,2.32-0.77,3.48-1.16c7.58,0.05,15.16,0.09,22.74,0.14
			c0.77,3.21,3.4,1.92,5.35,2.17c8.17,1.03,15.98-1.85,24-2.31c16.69-0.96,30.81-6.07,38.52-22.39c0.3-0.64,1.09-1.06,1.65-1.59
			c5.91,3.08,7.3,6.13,5.23,11.85C545.61,403.05,545.65,405.54,545.87,408.08z"/>
		<path class="st6" d="M541.27,388.73c-0.56,0.52-1.34,0.94-1.65,1.59c-7.71,16.31-21.83,21.43-38.52,22.39
			c-8.02,0.46-15.82,3.34-24,2.31c-1.96-0.25-4.58,1.04-5.35-2.17c0.77-0.17,1.55-0.33,2.32-0.49c2.4,0.1,4.8,0.2,7.2,0.3
			c2.57,1.29,5.25,2.94,6.01-1.81c0.74-0.02,1.47-0.03,2.21-0.05c1.04,2.22,1.89,1.8,2.63-0.18c2.37-0.46,4.73-0.92,7.1-1.38
			c1.57,1.55,2.01,0.28,2.45-0.98c4.18-1.24,8.07-2.85,9.78-7.36c1.18-1.05,0.91-2.5,1.06-3.83c1.96-5.17-2.48-6.6-5.41-8.08
			c-6.16-3.12-12.89-3.03-19.67-2.07c-13.47,1.91-26.92,3.7-40.03-2.34c-5.11-2.35-10.57-4.4-16.38-1.81
			c0.11-1.48,0.8-2.53,2.13-3.26c7.14-3.92,12.61-9.43,15.97-16.93c1.18-0.03,2.35-0.07,3.53-0.1c1,0.16,1.99,0.33,2.99,0.49
			c5.68,4.1,12.06,5.33,18.92,4.58c1.08,0.14,2.15,0.28,3.23,0.42c1.49,2.12,3.46,2.85,5.96,2.07c0.7-0.06,1.4-0.13,2.09-0.19
			c1.29,0.09,2.58,0.18,3.86,0.26c4.86,2.39,9.86,3.93,15.34,2.47c0.71,0.08,1.43,0.17,2.14,0.25c4.82,4.06,11.36,2.41,16.67,5.03
			C530.03,380.92,537.76,381.41,541.27,388.73z"/>
		<path class="st7" d="M299.71,165.97c-3.02,0.18-4.48-2.18-6.36-3.89c-8.01-7.25-14.59-15.93-24.78-20.97
			c-6.54-3.23-13.24-6.27-20.09-7.05c-18.5-2.11-36.95-0.98-53.29,9.3c-7.41,4.66-11.52,12.87-17.02,19.55
			c-7.16,8.67-12.92,18.37-18.09,28.25c-6.2,11.87-12.49,23.77-17.18,36.38c-6.85,18.43-14.8,36.24-26.52,52.26
			c-5.53,7.56-8.65,16.61-15.91,23.29c-8.15,7.51-18.2,12.67-25.34,21.32c-0.94,1.14-2.41,1.3-3.82,1.34
			c4.15-6.56,10.03-11.58,16.32-15.69c16.92-11.08,25.89-27.21,31.22-46.01c8-28.21,18.09-55.58,33.15-80.89
			c9.63-16.19,21.96-30.14,38.07-39.88c25.2-15.23,52.28-19.27,79-5.29C281.11,144.29,292.27,153.61,299.71,165.97z"/>
		<path class="st3" d="M133.52,485.01c0.03-1.34,0.07-2.69,0.1-4.03c1.73-0.72,2.04-2.18,1.97-3.83c0.35-1.5,1.06-2.76,2.42-3.58
			c3.36-2.11,5.74-5.06,7.36-8.65c3.69,2.91,7.6,1.16,11.59,0.82c10.71-0.92,21.47-1.77,32.15,0.53c-0.21,3.81,2.39,4.78,5.32,4.69
			c7.58-0.24,15.21,1.06,22.71-1.8c5.12-1.95,10.18,1.48,11.35,6.68c-6.33,0.02-12.65,0.05-18.98,0.07
			c-1.95-0.15-3.81,0.06-3.63,2.6c0.24,3.33-1.47,3.82-4.38,4.74c-11.31,3.58-22.17,8.83-34.56,7.35c-1.5-0.18-3.08,0.58-4.64,0.69
			c-3.59,0.26-5.39,2.1-5.41,5.69C147.76,495.61,139.42,492.69,133.52,485.01z"/>
		<path class="st4" d="M284.55,505.6c-4.89,2.74-10.45,1.56-15.57,2.06c-25.72,2.48-51.38,6.53-77.36,5.09
			c-11.61-0.64-23.17-1.8-34.44-4.88c-1.07-0.29-1.96-1.26-2.92-1.92c1.91-4.04,4.92-5.32,9.5-5.26c9.08,0.12,18.17-0.01,27.29-0.69
			c10.3-0.76,20.22-3.43,30.43-4.49c2.88-0.3,7.43,1.62,9.35-2.9c3.65-0.19,7.29-0.39,10.94-0.58c0.03,0.22-0.04,0.41-0.2,0.56
			c1.6,3.17,3.88,4.21,7.1,2.23c0.84,0.1,1.68,0.2,2.53,0.3c0.33,3.33,3.01,4.21,5.49,4.39c8.45,0.6,16.44,4.19,25.03,3.75
			C283.33,503.17,284.32,503.95,284.55,505.6z"/>
		<path class="st7" d="M379.96,182.37c-1.6-1.77-3.78-1.34-5.6-1.02c-19.38,3.35-38.75-0.79-58.12,0.01
			c-2.5,0.1-4.09-1.41-5.51-3.06c-3.2-3.71-7.78-6.21-9.69-11.04c4.47,0.51,6.36,4.46,9.01,7.16c4.04,4.11,8.27,5.01,13.94,4.16
			c14.78-2.22,29.4-6.11,44.51-5.44c18.6,0.83,36.06,5.42,49.7,18.89c11.9,11.76,16.71,26.23,14.68,43.15
			c-1.41,11.75-5.37,23.04-5.56,35.01c-0.1,6.38,1.01,11.74,6.31,15.74c1.24,0.94,2.42,2.13,2.12,4c-4.05-0.66-5.13-5.49-9.01-6.38
			c-0.15-0.7-0.3-1.39-0.45-2.09c0.09-1-0.09-1.88-1.08-2.39c0-5.57-0.01-11.15-0.01-16.72c1.66-1.3,1.1-3.09,1.06-4.76
			c0.53-3.57,1.05-7.13,1.58-10.7c3.39-8.54,2.2-17.45,2.06-26.27c-1.85-3,0.81-7.53-3.33-9.74c0.03-0.34,0-0.67-0.1-0.99
			c0.01-1.72,0.06-3.47-2.34-3.62l0.01-0.06c-1.01-6.89-6.32-10.88-11.03-14.75c-6.31-5.18-12.95-10.96-22-9.91
			C387.38,181.96,383.69,182.3,379.96,182.37z"/>
		<path class="st6" d="M340.88,504.88c-7.58,1.59-15.18,0.79-22.78,0.25c-1.51-1.27-3.45-0.75-5.15-1.23
			c-0.93-1-2.12-0.73-3.27-0.66c-2.39-1.47-4.89-1.27-7.43-0.51c-4.66-0.38-9.32-0.77-13.98-1.15c-0.71-2.18-2.26-2.09-4-1.49
			c-3.04-0.32-6.08-0.63-9.12-0.95c-0.75-2.17-2.32-2.02-4.04-1.41c-1.1-0.1-2.21-0.2-3.31-0.29c-0.62-1.27-1.37-1.54-2.32-0.3
			c-0.77-0.09-1.53-0.18-2.3-0.27c-0.66-2.3-2.25-2.11-4-1.51c-2.25-0.31-4.5-0.63-6.75-0.94c-1.84-2.71-4.39-2.87-7.23-1.98
			c-1.21,0.05-2.42,0.1-3.62,0.16c0.17-0.15,0.23-0.34,0.2-0.56c-0.29-2.27-3-1.54-3.85-3.12c7.71-3.26,16.18-3.55,24.07-6.12
			c2.44-0.01,4.69,0.7,6.78,1.91c9.23,5.37,19.05,8.58,29.85,8.29c0.42,1.43,1.33,2.01,2.8,1.6c1.11,0.04,2.23,0.09,3.34,0.13
			c11.51,4.45,23.64,5.92,35.78,7.31C340.66,502.99,340.77,503.94,340.88,504.88z"/>
		<path class="st8" d="M145.36,464.92c-1.63,3.59-4,6.54-7.36,8.65c0.04-3.49-0.34-4.89-5.05-4.17c-18.03,2.75-36.1,2.17-54.24-0.26
			c-11.69-1.57-23.12-4.08-34.63-6.4c-1.18-0.24-2.39-0.26-2.84-1.67c1.85-1.56,4.33-0.21,6.26-1.36c1.51,0.09,3.01,0.17,4.52,0.25
			c5.41,2.96,11.13,1.26,16.75,1.11c2.36,0.07,4.73,0.13,7.09,0.2c3.52,2.02,7.07,1.83,10.64,0.15c16.18,0.21,32.36,0.42,48.53,0.64
			c1.75,2.61,4.16,1.89,6.55,1.28C142.84,463.87,144.1,464.4,145.36,464.92z"/>
		<path class="st9" d="M65.92,373.15c-5.43,0.87-10.9,1.55-15.39,5.3c-1.52,1.27-3.43,1.97-5.53,1.85
			c-3.75-0.21-6.25,2.22-8.77,4.38c-4.16,3.57-2.15,6.71,1.18,9.29c2.15,1.66,4.62,2.98,7.1,4.14c1.63,0.76,3.71,1.01,3.52,3.31
			c-0.18,2.22-1.91,3.27-3.92,3.96c-10.43,3.59-20.93,6.98-31.22,10.94c-6.69,2.58-12.38,7.1-17.27,12.27
			c-3.5,3.69-1.72,8.59-1.35,13.04c-4.91-4.39-2.33-15.07,3.72-19.54c6.9-5.1,14.35-9.1,22.4-12c5.02-1.81,10.12-3.4,15.15-5.21
			c3.56-1.28,4-2.99,1.23-6.02c-9.9-10.84-9.07-15.24,4.27-21.58c7.27-3.46,14.86-6.29,22.91-7.55c0.73,0,1.45,0.01,2.18,0.01
			C66.06,370.88,65.99,372.01,65.92,373.15z"/>
		<path class="st4" d="M296.91,522.3c-0.59,0-1.19,0.04-1.78-0.01c-4.13-0.31-9.41-0.14-10.16-5.05c-0.77-5.06,4.17-7.19,8.3-8.71
			c6.58-2.42,13.14-0.92,19.4,1.29c3.87,1.37,3.86,6.76,0.21,8.95C307.97,521.73,302.42,522.01,296.91,522.3z"/>
		<path class="st8" d="M230.83,492.61c-1.91,4.52-6.47,2.6-9.35,2.9c-10.21,1.06-20.13,3.73-30.43,4.49
			c-9.12,0.68-18.21,0.81-27.29,0.69c-4.58-0.06-7.59,1.23-9.5,5.26c-3.3-0.11-5.22-2.96-8.05-4.02c-0.83-7.04-7.61-6.64-11.82-9.46
			c-0.53-2.46-2.15-4.79-0.87-7.46c5.9,7.68,14.24,10.6,23.37,11.99c12.6,0.87,25.25,0.81,37.81,0.01
			c6.06-0.38,12.42-0.89,18.24-3.37c1.58-0.1,3.16-0.2,4.73-0.3C222.07,493.31,226.38,491.84,230.83,492.61z"/>
		<path class="st10" d="M426.73,283.55c3.88,0.89,4.97,5.73,9.01,6.38c0,0,0.07,0.07,0.07,0.07c0.11,1.43,0.89,2.2,2.31,2.33
			c0.41,0.42,0.82,0.84,1.23,1.25c-0.06,1.93,0.95,3.28,2.21,4.64c3.87,4.19,7.88,8.29,11.37,12.78
			c12.24,15.72,13.75,21.39,4.71,40.33c-1.76,3.68-5.01,6.68-5.01,11.15c-1.18,0.03-2.35,0.07-3.53,0.1
			c4.63-7.02,4.07-16.1,9.78-22.94c4.03-4.83,2.05-11.77-2.37-16.89c-3.83-4.44-8.2-8.6-9.86-14.55c-0.57-2.06-1.84-3.67-3.98-3.93
			c-4.5-0.56-6.39-3.58-7.33-7.43c-0.73-3-2.32-5.23-5.34-5.59C424.12,290.55,423.88,287.8,426.73,283.55z"/>
		<path class="st8" d="M411.02,477.09c4.57,1.9,4.97,4.76,3.16,9.27c-6.46,16.11-20.61,17.71-34.94,19.25
			c-1.98,0.21-4.61-0.99-5.35,2.23c-1.16,0.04-2.32,0.08-3.48,0.12c-0.83-1.2-1.66-1.19-2.47,0.01c-6.48,0-12.96,0.04-19.45-0.03
			c-1.99-0.02-4.71,0.72-4.44-2.9c2.04-0.13,4.07-0.26,6.11-0.4c2.39,1.47,4.75,1.6,7.06-0.18c3.16-0.09,6.32-0.18,9.48-0.28
			c2.2-0.1,4.88,1.45,6.18-1.78c1.54-0.15,3.08-0.31,4.62-0.46c0.82-0.05,1.64-0.1,2.46-0.15c1.14-0.07,2.29-0.13,3.43-0.19
			c0.8,0.08,1.59,0.15,2.39,0.23c1.51,0.28,2.33-0.42,2.65-1.85c1.52-0.14,3.04-0.28,4.56-0.42c3.12-0.91,6.87-0.58,8.48-4.39
			c0.74-0.14,1.49-0.27,2.23-0.41c2.96-0.15,4.49-1.74,4.73-4.65c0.08-0.38,0.19-0.75,0.35-1.11
			C413.68,485.81,411.87,481.36,411.02,477.09z"/>
		<path class="st8" d="M509.87,422.16c1.17-0.06,2.34-0.12,3.51-0.18c7.35,0.98,13.32-4.12,20.34-4.63
			c-0.44,1.58-0.88,3.17-1.33,4.75c-9.35,1.25-18.68,2.58-28.04,3.72c-7.22,0.88-14.46,1.81-21.72,2.16
			c-4.86,0.23-6.87,1.26-5.46,6.75c2.22,8.61-0.56,13.27-7.77,14.8c3.61-4.27,7.22-8.52,5.6-14.8c-2.3-8.94-2.29-9.1,7.37-10.02
			c4.53-0.43,9.14,0.05,13.7-0.23C500.73,424.19,505.46,424.03,509.87,422.16z"/>
		<path class="st7" d="M452.64,362.48c0-4.47,3.25-7.47,5.01-11.15c9.04-18.94,7.53-24.6-4.71-40.33
			c-3.49-4.49-7.5-8.59-11.37-12.78c-1.26-1.36-2.26-2.72-2.21-4.64c11.51,8.86,20.37,20.03,25.49,33.47
			c3.46,9.09-1.67,17.58-5.55,25.79c-1.42,3.02-4.8,5.76-1.98,9.69c-0.56,0.15-1.13,0.29-1.69,0.44
			C454.63,362.8,453.63,362.64,452.64,362.48z"/>
		<path class="st11" d="M541.27,388.73c-3.51-7.32-11.24-7.81-17.42-10.87c-5.31-2.63-11.85-0.97-16.67-5.03
			c10.24-0.91,19.06,3.59,27.95,7.55c5.79,2.58,10.94,6.18,14.33,11.87c3.5,5.85,2.31,11.52-3.59,15.83
			c-0.21-2.53-0.26-5.03,0.64-7.5C548.57,394.86,547.18,391.81,541.27,388.73z"/>
		<path class="st8" d="M263.17,496.87c0.77,0.09,1.53,0.18,2.3,0.27c0.62,1.27,1.38,1.48,2.32,0.3c1.1,0.1,2.21,0.2,3.31,0.29
			c0.77,2.11,2.28,2.12,4.04,1.41c3.04,0.32,6.08,0.63,9.12,0.94c0.72,2.13,2.24,2.13,4,1.5c4.66,0.38,9.32,0.77,13.98,1.15
			c0.11,0.82,0.23,1.64,0.34,2.46c-6.02,0.14-12.03,0.28-18.05,0.42c-0.23-1.65-1.21-2.43-2.84-2.34
			c-8.59,0.44-16.57-3.15-25.03-3.75c-2.48-0.18-5.16-1.06-5.49-4.39c0.41-0.23,0.81-0.47,1.22-0.7c2.25,0.31,4.5,0.63,6.75,0.93
			C259.9,497.43,261.4,497.49,263.17,496.87z"/>
		<path class="st4" d="M555.08,413.76c5.13,0.06,10.19-0.29,10.19,4.52c0,5.11-5.44,4.41-9.14,4.83c-1.27,0.14-2.62-0.75-3.96-0.87
			c-2.51-0.24-4.25-1.2-4-3.99c0.22-2.44,1.79-3.89,4.16-4.31C553.68,413.7,555.08,413.76,555.08,413.76z"/>
		<path class="st4" d="M100.49,475.76c3.69,0.34,7.85,0.98,8.36,5.49c0.37,3.26-2.57,5.59-5.86,5.05c-3.86-0.63-8.76-1.19-9.12-6.43
			C93.59,475.65,97.48,476.14,100.49,475.76z"/>
		<path class="st7" d="M66.12,369.74c-0.73-0.01-1.45-0.01-2.18-0.01c-6.4-13.68-6.34-26.95,2.57-39.63
			c1.24-1.76,2.46-3.6,4.71-4.27c-0.21,0.95-0.13,2.14-0.68,2.82c-9.63,11.96-10.24,24.99-4.81,38.8
			C66.02,368.15,66,368.97,66.12,369.74z"/>
		<path class="st11" d="M533.71,417.35c-7.01,0.51-12.98,5.61-20.34,4.63c0.28-1.31,1.11-1.86,2.42-2.17
			c8.75-2.05,17.23-4.82,24.8-9.88c1.03-0.68,2.21-1.06,2.7,0.71C541.42,414.75,536.49,414.51,533.71,417.35z"/>
		<path class="st11" d="M455.62,362.97c0.56-0.15,1.13-0.29,1.69-0.44c5.75,1.63,12.12,1.19,17.23,5.02
			C467.69,368.3,461.31,367.07,455.62,362.97z"/>
		<path class="st11" d="M505.03,372.58c-5.48,1.46-10.48-0.07-15.34-2.47C495.03,369.56,500.4,368.76,505.03,372.58z"/>
		<path class="st8" d="M3.16,450.64c6.23,1.78,12.84,2.57,18.14,6.82C14.95,456,8.04,456.03,3.16,450.64z"/>
		<path class="st4" d="M134.39,492.46c4.21,2.82,10.99,2.42,11.82,9.46C141.71,499.46,137.24,496.98,134.39,492.46z"/>
		<path class="st4" d="M334.2,511.34c-0.07,1.67-1.16,2.36-2.65,2.52c-1.42,0.15-3.07,0.04-3.33-1.6c-0.21-1.3,0.48-2.72,2.19-2.93
			C332.11,509.12,333.54,509.49,334.2,511.34z"/>
		<path class="st11" d="M302.59,505.18c-0.11-0.82-0.23-1.64-0.34-2.46c2.54-0.76,5.04-0.95,7.43,0.52c0,0.52,0.01,1.04,0.02,1.57
			C307.37,505.77,304.98,505.42,302.59,505.18z"/>
		<path class="st12" d="M350.16,504.66c-2.04,0.13-4.07,0.26-6.11,0.39c-1.06-0.06-2.12-0.12-3.17-0.17
			c-0.11-0.94-0.22-1.89-0.33-2.83c3.18,0.59,6.69-1.27,9.61,1.29C350.16,503.78,350.16,504.22,350.16,504.66z"/>
		<path class="st4" d="M39.99,478.12c-1.76,0.12-2.52-1.05-2.75-2.46c-0.25-1.51,0.93-2.04,2.18-2.04c1.57,0,2.57,0.9,2.75,2.47
			C42.35,477.66,41.32,478.1,39.99,478.12z"/>
		<path class="st8" d="M23.33,457.69c3.66-0.95,7.06-0.71,9.91,2.11C29.59,460.73,26.33,459.79,23.33,457.69z"/>
		<path class="st11" d="M483.74,370.03c-2.5,0.77-4.47,0.05-5.96-2.07c1.93-1.28,3.89-0.34,5.85-0.09
			C483.66,368.59,483.7,369.31,483.74,370.03z"/>
		<path class="st8" d="M312.95,503.9c1.7,0.48,3.63-0.04,5.15,1.23c-1.61,2.46-3.3,2.21-5.05,0.15
			C313.02,504.82,312.98,504.36,312.95,503.9z"/>
		<path class="st12" d="M312.95,503.9c0.03,0.46,0.07,0.92,0.1,1.38c-1.12-0.16-2.24-0.31-3.35-0.47c-0.01-0.52-0.01-1.05-0.02-1.57
			C310.83,503.17,312.02,502.9,312.95,503.9z"/>
		<path class="st8" d="M135.58,477.15c0.07,1.65-0.24,3.1-1.97,3.83C132.78,478.93,133.65,477.77,135.58,477.15z"/>
		<path class="st8" d="M-5.18,443.52c2.09,0.2,2.47,1.7,2.58,3.4C-4.65,446.68-5.29,445.38-5.18,443.52z"/>
		<path class="st7" d="M438.12,292.33c-1.42-0.13-2.2-0.9-2.31-2.33C437.51,289.86,438.28,290.63,438.12,292.33z"/>
		<path class="st7" d="M483.74,370.03c-0.04-0.72-0.07-1.45-0.11-2.17c1.85-0.58,2.17,0.54,2.21,1.98
			C485.13,369.91,484.43,369.97,483.74,370.03z"/>
		<path class="st4" d="M367.94,507.98c0.82-1.2,1.64-1.21,2.47-0.01C369.59,509.22,368.77,509.23,367.94,507.98z"/>
		<path class="st13" d="M282.12,290.99c6.17-3.53,7.29-7.78,4.1-16.65c-0.81-2.24-1.99-4.33-1.72-6.82c0.67-6.05-2.94-7.54-8-7.54
			c-15.69,0.01-31.44,0.86-47.05-0.27c-11.8-0.85-23.53-2.56-35.41-2.14c-2.83,0.1-3.7-1.98-4.12-4.22
			c-0.81-4.36-3.42-5.59-7.65-5.36c-5.94,0.32-11.91,0.07-17.87,0.08c-8.44,0.02-14.83,10.74-11.06,18.52
			c1.9,3.91,3.97,7.83-0.05,12.48c-2.39-4.78-5.48-8.2-10.32-10.06c-3.92-1.51-5.46-5.33-5.02-9.27c0.83-7.54,3.33-14.43,8.02-20.68
			c3.67-4.88,5.84-10.59,6.24-16.99c0.44-6.99,4.21-13,8.83-17.74c4.71-4.83,6.7-10.68,8.72-16.53c2.24-6.47,6.52-11.29,10.16-16.78
			c5.32-8,13.83-12.7,18.6-21.02c4.53-7.89,11.57-12.03,21.13-11.71c10.66,0.36,21.3-0.23,31.88,2.31c7.93,1.9,12.9,8.16,19.7,11.64
			c2.12,1.08,1.23,3.98,1.29,6.12c0.2,7.41,5.59,13.8,12.97,13.18c9.63-0.81,15.57,4.23,21.31,10.44
			c2.53,2.74,12.47,5.28,15.69,3.71c1.53-0.75,3.09-1.04,4.6-0.76c11.18,2.08,22.56-1.9,33.7,1.15c-2.75,8.34-6.94,16.32-6.03,25.56
			c0.22,2.19-0.35,4.85-2.03,5.99c-4.3,2.93-4.13,6.56-3.07,10.89c2.36,9.7,1.97,18.47-7.58,24.8c-9.04,5.99-20.16,9.02-26.79,18.54
			c-0.47,0.68-1.79,0.74-2.67,1.18c-8.3,4.24-17.17,7.59-23,15.56C287.9,290.99,285.33,292.37,282.12,290.99z M197.4,201.55
			c3.44-3.17,3.51-9.78,0.14-12.57c-5.36-4.43-11.77-3.52-16.69,2.39c-3.79,4.55-3.44,15.68,1.07,18.64
			c3.45,2.27,7.7,1.37,11.54,0.54c2.79-0.6,4.49-2.5,3.87-5.7C197.34,203.75,197.37,202.65,197.4,201.55z M292.38,223.11
			c3.5-2.31,10.02,0.74,11.77-5.12c1.06-3.55-9.02-14.75-12.29-14.91c-3.81-0.18-6.21,5.89-6.13,15.41
			C285.76,222.87,288.99,222.74,292.38,223.11z M221.2,170.8c-0.32-2.47-0.57-5.84-4.8-6.11c-4.35-0.28-10.19,5.26-10.42,9.59
			c-0.23,4.2,3.99,9.14,8,9.37C219.82,183.99,220.32,183.16,221.2,170.8z M216.62,156.28c2.22-0.21,5.26,0.54,5.58-2.78
			c0.29-3.02-2.6-4.09-4.8-4.09c-2.62,0-6.23,0.88-6.38,3.9C210.87,156.09,214.25,156.03,216.62,156.28z"/>
		<path class="st14" d="M282.12,290.99c3.21,1.38,5.78,0.01,7.55-2.41c5.84-7.97,14.7-11.32,23-15.56c0.87-0.45,2.19-0.5,2.67-1.18
			c6.63-9.52,17.75-12.54,26.79-18.54c9.55-6.33,9.94-15.11,7.58-24.8c-1.05-4.32-1.23-7.96,3.07-10.89
			c1.68-1.14,2.24-3.8,2.03-5.99c-0.91-9.24,3.28-17.22,6.03-25.56c6.47-0.75,13.22-0.03,19.13-3.68c3.73-0.08,7.42-0.41,11.14-0.85
			c9.05-1.05,15.69,4.73,22,9.91c4.71,3.87,10.02,7.86,11.03,14.75c-1.41,0.14-2.52-0.17-3.79-1.08c-4.41-3.18-5.78-2.62-5.76,2.81
			c0.03,5.88-3.98,8.02-8.26,9.43c-3.4,1.12-6.1,2.68-8.91,4.91c-2.91,2.31-5.71,4.47-8.27,7.29c-3.38,3.73-6.77,8.41-10.65,10.55
			c-4.47,2.48-4.6,4.27-3.37,7.95c-7.73,0.61-9.36,4.69-4.77,11.95c-1.56,2.78-3.18,2.75-4.73,0.03c-1.58-2.76-1.64-5.65-0.55-8.6
			c0.42-1.15,0.71-2.37-0.76-3.01c-1.04-0.45-1.84,0.2-2.67,0.79c-8.77,6.22-11.79,18.18-22.44,22.53c-0.3,0.12-0.63,0.62-0.65,0.96
			c-0.57,9.55-7.97,10.03-14.83,11.11c-1.66,0.26-2.5,0.72-3.53,2.34c-4.63,7.27-9.18,14.71-14.8,21.19
			c-3.95,4.55-7.04,8.44-4.44,14.62c0.56,1.33,0.43,3.13-0.63,3.94c-4.48,3.43-4.86,9.36-8.48,13.32c-3.48,3.8-4.72,7.84,0.65,11.32
			c1.38,0.9,1.8,3.25,0.47,3.06c-5.44-0.8-8.8,4.38-13.83,4.17c-3.81-0.16-7.14,0.89-10.74,2.34c-4.09,1.65-9.05,5.23-13.56,0.21
			c-1.1-1.22-1.11-3.94-3.49-3.33c-2.3,0.59-0.74,3.3-1.72,4.6c-2.02,2.66,1.18,8.22-3.25,8.55c-4.58,0.34-3.05-5.09-4.28-7.93
			c-0.95-2.18-2.44-5.01-4.22-1.95c-2.93,5.05-3.97,2.58-5.43-0.5c-0.83-1.76-2.24-2.07-3.92-2c0.15-4.35,2.72-8.69,0.12-13.07
			c0-2.82,0.01-5.65,0.01-8.47c2.09-4.19-0.67-4.52-3.69-4.63c-5.17-0.12-4.61,3.72-4.85,7.01c-0.56,1.62-1.67,2.49-3.41,2.53
			c-2.93,0.19-4.51,1.8-4.91,4.66c-2.07,2.9-5.32,2.99-8.38,3.52c-0.53-5.89-3.84-8-9.49-7.06c-1.33,0.22-2.72,0.15-4.08,0.21
			c-0.34-0.25-0.68-0.49-1.01-0.74c0.21-3.13,0.36-6.3,3.86-7.8c0.6-0.5,1.47-0.89,1.75-1.53c2.86-6.75,5.36-8.5,12.61-6.45
			c6.44,1.82,10.2-0.6,13.35-5.68c3.7-5.96,12.67-8.93,19.1-6.48c6.62,2.52,9.76,1.56,13.06-4.31c1.06-1.89,2.14-3.31,4.53-2.98
			c9.75-1.96,17.38-7.01,22.66-15.5C280.53,290.99,281.32,290.99,282.12,290.99z"/>
		<path class="st14" d="M73.45,378.45c-0.88-1.65-3.03-2.68-2.49-5.04c0.22-1.95,0.01-4.1,0.78-5.8c1.02-2.24,2.43-4.8,5.81-2.49
			c2.09,1.43,4.62,1.4,6.91,0.66c14.16-4.58,29.34-6.63,41.31-16.66c1.84-1.54,4.41-1.37,6.31-0.78c8.86,2.73,15.39-2.67,22.74-5.69
			c5.56-2.28,11.27-3.57,15.93-8.11c3.12-3.04,5.4,3.05,8.79,2.97c-0.69,6.53,0.75,11.64,6,16.67c4.7,4.51,11.22,9.59,8.32,18.21
			c-1.11,3.3,0.2,8.24-2.48,9.91c-4.76,2.98-6.18,7.9-9.49,12.24c-1.55-1.3-2.37-3.6-5.25-2.72c-4.74,1.45-8.82-0.82-12.57-3.62
			c-2.84-2.12-5.53-5.26-9.12-5.19c-9.05,0.18-16.46-7.06-25.77-5.32c-0.8,0.15-1.79-0.76-2.7-1.13c-9.37-3.8-18.85-7.25-29.21-5.64
			c-6.52,1.01-13.05,1.61-20.82,1.66c2.78,2.21,6.86,3.08,4.01,6.89C78.13,379.14,75.79,378.79,73.45,378.45z"/>
		<path class="st10" d="M80.46,379.49c2.85-3.82-1.23-4.69-4.01-6.9c7.76-0.05,14.3-0.65,20.82-1.66
			c10.36-1.61,19.84,1.84,29.21,5.64c0.92,0.37,1.9,1.28,2.7,1.13c9.31-1.74,16.72,5.49,25.77,5.32c3.59-0.07,6.28,3.07,9.12,5.19
			c3.75,2.8,7.83,5.07,12.57,3.62c2.88-0.88,3.7,1.42,5.25,2.72c3.31-4.34,4.73-9.26,9.49-12.24c2.67-1.67,1.36-6.61,2.48-9.91
			c2.91-8.63-3.61-13.7-8.32-18.21c-5.24-5.03-6.69-10.14-6-16.67c1.86-3.55,5.2-5.23,8.67-6.65c2.85-1.16,4.61-0.36,4.44,3.05
			c-3.5,1.5-3.65,4.67-3.86,7.79c-5.27-1.04-4.63,1.66-3.13,4.94c2.96,6.49,8.78,10.07,14.23,14.05c-1.99,3.7-1.66,7.52-0.61,11.39
			c0.02,1.06,0.05,2.12,0.07,3.18c-3.03,1.62-1.86,4.54-2,6.94c-0.79,13.44-8.51,24.64-20.17,27.19c-9.8,2.15-19.89,2.99-29.85,4.41
			c-1.47-1.44-1.77-4-4.39-4.37c-9.74-1.4-14.8-7.28-15.96-16.84c-0.23-6.85-3.2-10.72-8.98-10.91c-9.85-0.33-19.63,0.64-29.32,2.43
			C85.32,383.68,82.02,383.13,80.46,379.49z"/>
		<path class="st7" d="M112.78,328.09c-0.05,3.96-5.32,9.64-9.01,9.32c-4.19-0.35-6.85-3.09-7.51-7.03
			c-0.59-3.56,5.99-8.57,10.4-8.42C111,322.13,112.83,323.96,112.78,328.09z"/>
		<path class="st13" d="M279.73,290.99c-5.28,8.49-12.91,13.54-22.66,15.5c0.31-0.7,0.43-1.76,0.96-2.05
			c6.69-3.62,13.85-6.51,18.94-12.57C277.5,291.24,278.8,291.26,279.73,290.99z"/>
		<path class="st11" d="M96.24,398.16c0.7,0.86,1.41,1.73,2.11,2.59c-3.98-0.29-7.7,0.25-11.46,1.98c-4.62,2.13-9.63,3.4-14.44,5.12
			c-5.58,2-10.52,5.14-11.89,11.2c-1.39,6.15,2.76,10.52,6.95,14.11c3.47,2.97,6.32,5.83,5.96,10.73c-0.13,1.79,0.45,3.09,2.41,3.43
			c-0.45,2.46-2.35,2.27-4.13,2.24c-10.58-0.2-21.38,1.43-31.57-2.5c-8.03-3.1-15.31-7.75-22.03-13.15c-0.74-0.59-0.68-2.17-1-3.29
			c4.43-0.86,5.56-5.19,8.06-8c1.43-1.6-0.45-2.69-2.15-3.08c0.98-2.92,3.5-2.24,5.51-2.08c13.85,1.09,25.05-3.66,35.24-13.25
			c5.96-5.61,14.48-7.64,23.09-6.31c2.39,0.37,4.69,0.5,7.04,0.09C94.69,398.04,95.47,398.1,96.24,398.16z"/>
		<path class="st12" d="M92.45,449.68c0.07-1.06,0.3-2.03,1.4-2.53c3.68,2.05,7.73,0.9,11.6,1.34c0.24,1.45,1.01,2.28,2.57,2.19
			c0.79,0.02,1.59,0.05,2.38,0.07c1.16,1.56,2.37,1.51,3.61,0.11c0.72,0.01,1.45,0.02,2.17,0.02c0.39,2.23,1.98,2.36,3.76,2.15
			c4.01-0.26,8.14,1.14,12.01-0.9c3.24,0.86,6.51,1.36,9.88,0.92c1.25-0.16,2.33-0.66,2.63-1.96c0.25-1.09-0.53-2.26-1.43-2.22
			c-5.35,0.23-10.58-2.74-15.98-0.57c-2.37-0.37-4.74-0.74-7.11-1.11c-1.28-1.73-3.12-1.06-4.78-1.13
			c-7.43-1.21-14.2-3.98-20.3-8.41c-5.14-3.74-4.83-6.54,1.15-9.63c6.5,1.79,10.9-2.28,15.57-5.59c8.58-1.64,17.27-1.54,25.94-1.62
			c0.03,0.79,0.05,1.58,0.08,2.37c-4.32,2.96-1.42,3.95,1.36,4.98c0,0,0.02,0.02,0.02,0.02c0.84,5.02,5.48,3.28,8.36,4.6
			c3.13,1.43,7.44-0.35,9.74,3.52c-0.99,0.05-2.05-0.13-2.95,0.19c-2.86,1-6.9-3.58-8.43,0.7c-1.29,3.58,3.49,5.75,4.97,8.9
			c0.15,0.32,0.59,0.51,0.89,0.76c6.11,5.06,6.11,5.06,1.77,9.87c-4.3,0.06-8.6,0.13-12.9,0.19c-2.52,0.01-5.05,0.01-7.57,0.02
			c-5.31-0.04-10.63-0.06-15.94-0.11C108.07,456.76,99.91,454.41,92.45,449.68z"/>
		<path class="st6" d="M137.5,420.82c-8.68,0.08-17.36-0.02-25.94,1.62c-0.01-0.91-0.02-1.82-0.03-2.72c0.35-0.1,0.7-0.2,1.06-0.28
			c1.91,0.45,3.35-0.72,4.88-1.5c1.17-0.6,2.7-1.16,2.02-2.96c-0.51-1.36-1.86-1.17-2.99-1.21c-1.35-0.05-2.75-0.14-3.72,1.12
			c-1.55,0.09-3.09,0.19-4.64,0.28c-1.76-0.45-3.91,0.16-2.4-3.44c3.69-8.75,0.39-13.12-9.5-13.59c-0.77-0.06-1.54-0.11-2.31-0.17
			c-1.61-3.34-5.05-2.72-7.72-3.17c-5.25-0.88-8.93-3.84-12.38-7.49c-2.76-2.92-1.09-5.89-0.37-8.88c2.34,0.35,4.68,0.69,7.02,1.04
			c1.55,3.65,4.85,4.19,8.22,4.62c0.34,1.6,1.46,2.1,2.96,2.39c6.18,1.22,12.41,2.26,18.7,2.21c5.93-0.04,11.74-0.23,16.64,3.87
			c1.16,9.56,6.22,15.44,15.96,16.84c2.62,0.38,2.92,2.93,4.39,4.37c-0.11,0.32-0.16,0.65-0.15,1
			C143.07,415.39,139.94,417.56,137.5,420.82z"/>
		<path class="st6" d="M140.4,456.92c4.3-0.06,8.6-0.13,12.9-0.19c5.6-0.73,11.19-1.45,16.79-2.18c1.89,0.01,3.78,0.03,5.67,0.04
			c0.45,0.62,0.8,1.66,1.36,1.78c9.95,2.19,19.68,5.65,30.11,5.22c2.11-0.09,5-1.17,5.82,2.34c-3.14,2.81-6.85,3.83-10.99,3.47
			c-4.32-0.37-8.64-0.75-12.96-1.12c-10.68-2.3-21.44-1.45-32.15-0.53c-3.99,0.34-7.9,2.09-11.59-0.82
			c-1.26-0.52-2.53-1.05-3.79-1.57c-1.68-2.98-4.2-1.71-6.55-1.29c-16.18-0.21-32.36-0.42-48.53-0.64
			c-3.52-1.84-7.07-1.75-10.64-0.15c-2.36-0.07-4.73-0.13-7.09-0.2c-5.35-3.9-11.09-1.91-16.75-1.11c-1.51-0.08-3.02-0.17-4.52-0.25
			c4.33-3.16,9.52-2.27,14.31-2.74c6.04-0.6,12.19-0.21,18.29-0.15c3.35,0.03,6.1-1.01,6.37-4.63c0.4-5.21,3.05-3.94,5.98-2.52
			c7.46,4.74,15.62,7.09,24.44,7.16c5.31,0.04,10.63,0.07,15.94,0.11C135.37,460.21,137.89,460.24,140.4,456.92z"/>
		<path class="st8" d="M75.88,447.32c-1.96-0.33-2.54-1.64-2.41-3.43c0.37-4.9-2.49-7.76-5.96-10.73
			c-4.19-3.59-8.33-7.96-6.95-14.11c1.37-6.06,6.31-9.2,11.89-11.2c4.81-1.72,9.82-3,14.44-5.12c3.76-1.73,7.48-2.27,11.46-1.98
			c0.88,1.13,1.77,2.27,2.65,3.4c-0.01,1.26-0.03,2.51-0.04,3.77c-5.45,6.54-14.14,5.97-20.97,9.51c-2.8,1.45-5.87,2.35-6.79,5.87
			c-3.83,4.26-2.9,8.87,2.42,12.06C78.52,439.28,82.5,443.19,75.88,447.32z"/>
		<path class="st9" d="M108.14,415.18c1.55-0.09,3.09-0.19,4.64-0.28c2.56,1.62,0.2,3.04-0.19,4.54c-0.36,0.08-0.71,0.18-1.06,0.28
			c-5.81,1.58-11.78,2.89-15.53,8.31c-5.98,3.09-6.29,5.9-1.15,9.63c6.1,4.43,12.87,7.21,20.3,8.41c0.92,3.24,2.71,2.77,4.78,1.13
			c2.37,0.37,4.74,0.74,7.11,1.11c1.03,2.05,4.94,0.4,4.91,3.82c-3.87,2.04-8,0.64-12.01,0.9c-0.26-2.46-2.02-2.28-3.76-2.16
			c-0.72-0.01-1.45-0.02-2.17-0.02c-1.16-1.59-2.36-1.65-3.61-0.11c-0.79-0.02-1.59-0.05-2.38-0.07c-0.11-1.6-0.98-2.32-2.57-2.19
			c-3.87-0.43-7.92,0.71-11.6-1.34c-1.21-3.6-5.36-4.07-7.33-7.26c-3.6-5.83-3.69-10.11,1.88-14.19c5.2-3.81,10.63-7.48,17.31-8.37
			C107.08,417.14,107.84,416.48,108.14,415.18z"/>
		<path class="st9" d="M23.05,419.53c1.7,0.38,3.58,1.48,2.15,3.08c-2.5,2.81-3.62,7.13-8.06,8C14.83,423.65,16,421.46,23.05,419.53
			z"/>
		<path class="st9" d="M75.63,435.35c-5.33-3.19-6.25-7.8-2.42-12.06C72.82,427.55,73.83,431.53,75.63,435.35z"/>
		<path class="st11" d="M100.97,407.92c0.01-1.26,0.03-2.51,0.04-3.77c1.2,0.25,2.19,0.72,2,2.2
			C102.86,407.52,101.93,407.76,100.97,407.92z"/>
		<path class="st11" d="M509.87,422.16c-4.41,1.87-9.14,2.03-13.79,2.32c-4.55,0.28-9.17-0.2-13.7,0.23
			c-9.66,0.92-9.68,1.08-7.37,10.02c1.62,6.28-1.99,10.53-5.6,14.8c0,0-0.1,0.1-0.1,0.1c-2.13,1.8-4.91,2.91-6.04,5.75
			c-0.78,0.07-1.57,0.14-2.35,0.2c-1.46,0.01-2.22,0.77-2.37,2.19c-0.4,0.05-0.8,0.09-1.21,0.14c-3.41-1.15-5.97,2.96-9.43,1.53
			c3.29-3.77,9.25-3.1,12.25-7.36c5.3-2.25,8.62-6.82,12-11.04c2.04-2.55,1.4-6.02-1.28-8.57c-1.6-1.52-3.34-3.14-2.37-5.6
			c0.99-2.52,3.4-3.04,5.8-3.43c5.65-0.92,11.32-1.45,17.06-1.25c3.75,0.13,7.44-0.21,11.17-0.9
			C504.86,420.86,507.65,420.12,509.87,422.16z"/>
		<path class="st8" d="M447.89,459.45c3.46,1.43,6.02-2.68,9.43-1.53c-1.25,3.48-4.45,4.23-7.42,4.67
			c-10.89,1.61-21.12,6.33-32.39,6.3c-3.67-0.01-5.1,3.96-6.71,6.91c-2.21-1.51-4.34-3.08-4.76-6.01c-0.05-0.42-0.1-0.84-0.15-1.26
			c2.72-1.53,5.76-1.61,8.75-1.94c3.65,1.69,6.61,0.07,9.49-1.96c1.21-0.13,2.41-0.26,3.62-0.38c3.31,1.69,5.88,0.25,8.28-1.95
			c1.2-0.21,2.4-0.43,3.6-0.64c2.58,1.31,4.43,0.19,6.01-1.81C446.39,459.71,447.14,459.58,447.89,459.45z"/>
		<path class="st11" d="M406.04,469.79c0.42,2.93,2.56,4.5,4.76,6.01c0.07,0.43,0.14,0.86,0.21,1.29c0.86,4.27,2.66,8.72-2.25,11.91
			c-0.08-3.2-0.17-6.41-0.25-9.61c-0.15-2.94-1.97-4.33-4.61-4.95c-0.04-0.74-0.07-1.48-0.11-2.22
			C403.85,470.75,404.51,469.87,406.04,469.79z"/>
		<path class="st8" d="M463.26,455.38c1.13-2.84,3.91-3.96,6.04-5.75C469.34,453.71,467.41,455.71,463.26,455.38z"/>
		<path class="st8" d="M458.53,457.78c0.15-1.43,0.91-2.19,2.37-2.19C460.92,457.19,460.12,457.91,458.53,457.78z"/>
		<path class="st12" d="M406.04,469.79c-1.53,0.08-2.19,0.96-2.24,2.42c-2.92-0.29-4.36-4.66-7.78-3.13
			c-3.24,1.46-5.69-0.03-8.37-1.29c-1.4-0.66-3.07-1.59-4.42-1.33c-13.77,2.57-28.01-0.96-41.63,3.29c0.87-3.03,3.83-3.74,6-5.3
			c2.44-1.76,2.81-4.17,2.45-6.83c-0.33-2.4-1.79-4.06-4.19-4.34c-7.98-0.91-15.97-1.66-23.96-2.45c-1.59-0.16-2.64,0.58-3.03,2.17
			c-0.74,0.41-1.48,0.82-2.22,1.23c-4.92,2.57-4.02,6.11-1.49,9.74c4.22,6.03,10.69,5.85,17.04,5.92
			c-2.69,4.79-8.71,3.24-10.24,1.82c-7.28-6.79-14.25-1.37-20.55,0.24c-12.72,3.25-24.79,5.65-36.59-2.3
			c-1.27-0.85-2.9-1.23-4.42-1.65c-5.66-1.56-6.67-0.74-6.92,5.43c-8.32,0.95-16.58,2.57-25.01,2.42c-1.17-5.2-6.23-8.63-11.35-6.68
			c-7.5,2.85-15.13,1.56-22.71,1.8c-2.93,0.09-5.53-0.88-5.32-4.69c4.32,0.37,8.64,0.75,12.96,1.12c4.14,0.36,7.85-0.65,10.99-3.47
			c8.25,0.08,16.02-2.72,23.57-5.25c4.63-1.55,9.87-3.58,13.32-7.85c3.12-0.06,6.25-0.11,9.37-0.17c1.94-0.08,4.4,1,4.95-2.21
			c1.53-0.05,3.07-0.11,4.6-0.16c1.58,0.13,2.44-0.59,2.57-2.17c1.15-0.06,2.3-0.11,3.44-0.17c1.57,0.07,2.4-0.68,2.51-2.24
			c4.36-0.86,5.87-5.39,9.43-7.28c1.74,0.26,3.53,0.31,5.2,0.8c7.01,2.09,13.34,6.09,21.49,4.28c4.71-1.04,9.86,0.45,9.91-6.79
			c0-0.23,1.01-0.45,1.55-0.68c0.05,1.2,0.09,2.39,0.14,3.59c0.27,3.23,2.1,5.26,4.84,6.81c8.88,5.05,17.94,5.58,27.28,1.46
			c0.8-0.03,1.61-0.05,2.41-0.08c1.33,0.11,2.7,0.33,3.56-1.09c1.6-0.04,3.19-0.07,4.79-0.11c0.81-0.01,1.61-0.01,2.42-0.02
			c1.77,0.35,3.33-0.2,4.82-1.08c11.96-0.82,23.59,3.62,35.58,2.22c5.32,0.21,10.37-0.23,13.35-5.6c0.36-0.36,0.73-0.73,1.09-1.09
			c1.98,1.61,2.15-0.01,2.46-1.38c0.41-0.74,0.83-1.49,1.24-2.23c3.57-1.63,3.13-5,3.39-7.99c0.53-6.25,3.51-10.51,9.64-12.35
			c-4.46,4.79-1.63,11.07-3.34,16.59c-2.55,8.22-9.81,16.41-18.58,17.84c-6.85,1.12-12.72,3.97-17.92,8.54
			c-1.56,1.37-2.06,2.79-1.93,4.66c1.47,2.35,0.6,7,5.69,5.79C405.94,468.95,405.99,469.37,406.04,469.79z"/>
		<path class="st11" d="M441.96,415.1c-6.13,1.84-9.11,6.1-9.64,12.35c-0.25,3,0.19,6.37-3.39,7.99c-6.46-5.45-6.45-5.53-0.97-11.89
			c0.91-1.06,2.88-2,0.88-3.78c0.02-0.79,0.04-1.59,0.06-2.38c0.59-0.33,1.62-0.58,1.69-1c0.21-1.28-0.96-1.22-1.82-1.37
			c0,0-0.01-0.25-0.01-0.25c1.78-4.43-0.6-5.58-4.43-5.71c-5.66-0.19-10.6-1.83-15.26-5.48c-7.18-5.63-12.28-12.88-17.43-20.53
			c-1.57,2.53-0.79,4.72-0.85,6.83c-3-0.45-5.25,1.19-7.68,2.55c-3.33,1.86-5.77,1.63-5.61-3.14c0.11-3.37,0.04-6.75,0.06-10.12
			c6.04-4.56,4.51-11.09,4.3-17.16c-0.32-9.13-5.82-16.63-8.39-25.09c-0.72-2.37,0.72-6.25-3.81-7.57
			c1.05,6.61,2.02,12.76,2.99,18.91c-1.02-0.18-1.8-0.55-2.15-1.69c-4.05-12.87-6.32-25.78-1.21-38.93
			c0.94-0.23,1.89-0.46,2.84-0.69c3.38-0.03,6.77-0.75,10.15,0.1c0,4.18-0.01,8.35-0.01,12.53c-1.77,1.82-0.22,2.15,1.15,2.56
			c0.11,2.32,0.22,4.65,0.33,6.97c0,2.12,0.44,4.11,0.04,6.37c-1.32,7.47,1.71,14.44,3.79,21.39c0.97,3.23,5.32,1.86,7.76,3.44
			c-0.59,5.16,4.42,8.2,4.88,12.96c-1.79,1.85-0.34,2.13,1.15,2.39c0.82,2.78,1.64,5.56,2.47,8.34c-0.02,1.56,0.79,2.32,2.31,2.41
			c4.76,5.25,10.27,7.79,17.36,4.89c0.88-0.36,1.96-0.23,2.94-0.33c8.68,0.25,17.38-0.11,25.89,2.52
			c7.36,2.27,14.88,1.45,22.31-0.07c4.83-0.99,9.59-2.45,14.47-3.01c8.62-0.99,17.61-2.52,23.42,6.66
			c-0.16,1.33,0.12,2.78-1.06,3.83c-1.84-0.71-1.47-4.36-4-3.64c-4.6,1.31-8.6-1.25-12.94-1.37c-2.42-0.07-4.64,0.51-6.87,1.28
			c-1.12,0.39-2.35,0.83-2.18,2.29c0.15,1.3,1.38,1.16,2.31,1.21c4.3,0.24,2.79,2.64,1.84,4.85c-1.16-0.01-2.32-0.01-3.48-0.02
			c-3.18-0.37-6.31,0.37-9.48-1.8c-3.38-2.32-13.75,0.76-16.85,4.11c-1.58,0.02-3.16,0.04-4.75,0.05c-2.55-2.69-5.06,0.38-7.68,0.14
			c-2.58-0.24-6.46,0.19-7.02,2.88c-0.64,3.08,4.19,0.48,5.18,2.98C444.65,415.17,443.24,414.94,441.96,415.1z"/>
		<path class="st6" d="M405.89,468.53c-5.09,1.21-4.22-3.44-5.69-5.79c12.22-8.06,26.07-8.12,39.97-8.49
			c5.61-0.15,11.2-1.65,16.77-2.69c1.25-0.23,2.27-0.53,3.2,0.54c-3,4.25-8.95,3.58-12.24,7.36c-0.75,0.14-1.5,0.27-2.26,0.4
			c-2.36-0.58-4.3,0.23-6.01,1.81c-1.2,0.21-2.4,0.43-3.6,0.63c-3.17-1.11-5.84-0.08-8.28,1.95c-1.21,0.13-2.41,0.26-3.62,0.38
			c-3.51-1.01-6.69-0.46-9.49,1.97C411.66,466.92,408.61,467,405.89,468.53z"/>
		<path class="st8" d="M455.05,407.86c1.58-0.02,3.16-0.04,4.75-0.05c6.3,0.01,12.59,0,18.89,0.06c2.06,0.02,4.55-0.65,5.1,2.52
			c-0.75,0.04-1.5,0.08-2.26,0.11c-2.56,0.31-5.78-2-7.45,1.86c-0.77,0.16-1.55,0.33-2.32,0.5c-7.58-0.04-15.16-0.09-22.74-0.14
			C449.42,409.09,453.81,410.44,455.05,407.86z"/>
		<path class="st9" d="M455.05,407.86c-1.24,2.58-5.64,1.22-6.04,4.85c-1.16,0.39-2.32,0.77-3.48,1.16c-0.99-2.5-5.81,0.1-5.17-2.98
			c0.56-2.69,4.44-3.12,7.02-2.88C449.99,408.25,452.5,405.17,455.05,407.86z"/>
		<path class="st15" d="M426.73,283.55c-2.85,4.25-2.6,6.99,3.29,7.69c3.03,0.36,4.61,2.59,5.34,5.59c0.94,3.85,2.83,6.87,7.33,7.43
			c2.14,0.27,3.4,1.88,3.98,3.93c1.66,5.95,6.03,10.12,9.86,14.55c4.42,5.13,6.4,12.07,2.37,16.89c-5.71,6.85-5.15,15.92-9.78,22.94
			c-3.36,7.5-8.83,13.01-15.97,16.93c-1.33,0.73-2.02,1.78-2.12,3.26c-1.5,0.04-2.24,0.86-2.41,2.29c-1.65-0.11-3.1,0.41-4.39,1.42
			c-1.66-0.13-2.5,0.68-2.64,2.3c-8.91,1.56-10.29,0.58-14.96-8c-1.41-2.58-1.81-5.22-2.34-7.84c-2.21-11.04-6.35-21.45-10.09-31.99
			c0.93,0.74,1.86,1.47,2.78,2.22c0.76,0.62,1.56,1.51,2.54,0.72c0.93-0.75,0.72-2.16-0.05-2.64c-5.84-3.69-3.37-10.15-5.04-15.2
			c-0.83-2.53-3.43-6.48-0.29-8.12c3.54-1.84,4.41,2.73,6,5c0.79,1.13,1.81,1.52,3.06,1.25c1.53-0.33,1.52-1.46,1.42-2.76
			c-0.54-6.76-2.61-13.04-5.87-18.95c-0.86-1.56-2.11-2.94-2.71-4.58c-0.78-2.13,0.4-4.03,2.17-5c1.86-1.01,2.29,1.11,2.78,2.2
			c1.19,2.64,3.18,3.43,5.8,2.92c2.94-0.57,4.76-3,4.83-5.43c0.18-6,2.34-11.62,2.76-17.48c0.53-7.31,2.19-14.38,6.5-20.03
			c2.09-2.74,1.39-8.39,6.95-8.21c-0.53,3.57-1.05,7.13-1.58,10.7c-3.11,0.97-2.67,2.74-1.06,4.77c0,5.57,0.01,11.15,0.01,16.72
			c-1.77,1.76-0.44,2.11,1.08,2.39C426.43,282.16,426.58,282.85,426.73,283.55z"/>
		<path class="st5" d="M428.61,385.06c0.16-1.43,0.91-2.26,2.41-2.29c5.8-2.6,11.27-0.54,16.38,1.81
			c13.11,6.04,26.56,4.26,40.03,2.34c6.79-0.96,13.51-1.05,19.67,2.07c2.93,1.48,7.37,2.91,5.41,8.08
			c-5.81-9.19-14.8-7.65-23.41-6.66c-4.87,0.56-9.64,2.02-14.47,3.01c-7.43,1.52-14.95,2.34-22.31,0.07
			c-8.51-2.63-17.2-2.27-25.89-2.52C426.26,388.66,429.2,387.51,428.61,385.06z"/>
		<path class="st9" d="M489.61,405.52c0.94-2.21,2.45-4.61-1.84-4.85c-0.92-0.05-2.16,0.09-2.31-1.21c-0.16-1.46,1.06-1.9,2.18-2.29
			c2.22-0.77,4.45-1.35,6.87-1.28c4.34,0.12,8.34,2.68,12.94,1.37c2.53-0.72,2.16,2.93,4,3.64c-1.71,4.51-5.6,6.13-9.77,7.36
			c-1.08-0.32-1.96-0.16-2.45,0.98c-2.37,0.46-4.73,0.92-7.1,1.38c-0.47-0.2-0.93-0.4-1.4-0.6
			C490.98,408.36,490.42,406.91,489.61,405.52z"/>
		<path class="st5" d="M481.53,410.49c0.75-0.04,1.5-0.08,2.26-0.12c0.74-0.03,1.47-0.05,2.21-0.07c0.43,0.18,0.86,0.36,1.29,0.54
			c-0.76,4.74-3.44,3.1-6.01,1.81C481.36,411.93,481.44,411.21,481.53,410.49z"/>
		<path class="st8" d="M487.29,410.85c-0.43-0.18-0.86-0.36-1.29-0.54c0.04-1.6,0.09-3.2,0.13-4.8c1.16,0.01,2.32,0.01,3.48,0.02
			c0.81,1.39,1.37,2.83,1.12,4.49c-0.41,0.26-0.82,0.52-1.23,0.78C488.76,410.81,488.02,410.83,487.29,410.85z"/>
		<path class="st11" d="M481.53,410.49c-0.08,0.72-0.17,1.44-0.25,2.16c-2.4-0.1-4.8-0.2-7.2-0.3
			C475.75,408.49,478.96,410.8,481.53,410.49z"/>
		<path class="st5" d="M499.22,409.23c0.49-1.14,1.37-1.3,2.45-0.98C501.23,409.51,500.79,410.78,499.22,409.23z"/>
		<path class="st5" d="M489.5,410.79c0.41-0.26,0.82-0.52,1.23-0.78c0.47,0.2,0.93,0.4,1.4,0.6
			C491.38,412.6,490.53,413.01,489.5,410.79z"/>
		<path class="st11" d="M228.48,475.85c8.43,0.15,16.69-1.47,25.01-2.42c5.08-0.36,9.54,0.94,14.05,3.58
			c5.54,3.25,10.89,7,17.44,8.5c13.2,3.03,26.56,3.6,40.01,3.43c0.43,3.69-2.07,3.44-4.57,3.63c-5.25,0.4-10.55,0.57-15.65,2.16
			c-1.11-0.04-2.23-0.09-3.34-0.13c-0.41-1.45-1.23-2.18-2.8-1.6c-10.8,0.29-20.62-2.93-29.85-8.29c-2.09-1.22-4.34-1.92-6.79-1.91
			c-1.88-3.77-5.55-3.65-8.71-3.28c-10.62,1.22-21.28,0.98-31.92,1.28c-2.51-0.08-5.03-0.22-7.54-0.22
			c-3.19,0.01-4.68-1.43-4.31-4.66C215.83,475.9,222.15,475.87,228.48,475.85z"/>
		<path class="st12" d="M209.5,475.92c-0.37,3.23,1.13,4.66,4.31,4.66c2.51-0.01,5.03,0.14,7.54,0.22c-1.45,3.55-4.98,2.52-7.6,3.28
			c-6.61,1.92-13.1,4.07-20.05,6.99c3.01,2.17,5.44,1.13,7.69,1.44c3.83,0.53,7.88-1.18,11.53,1.13
			c-5.82,2.48-12.18,2.98-18.24,3.37c-12.56,0.8-25.2,0.86-37.81-0.01c0.01-3.6,1.82-5.43,5.41-5.69c1.56-0.11,3.14-0.87,4.64-0.69
			c12.39,1.48,23.25-3.77,34.56-7.35c2.91-0.92,4.61-1.42,4.38-4.74C205.69,475.98,207.56,475.77,209.5,475.92z"/>
		<path class="st12" d="M230.83,492.61c-4.44-0.78-8.76,0.7-13.16,0.74c0.27-1.32,1.13-1.82,2.43-2.08
			c5.89-1.18,11.74-2.6,17.82-2.35c0.85,1.57,3.56,0.85,3.85,3.12C238.12,492.22,234.47,492.42,230.83,492.61z"/>
		<path class="st8" d="M241.57,492.59c1.21-0.05,2.42-0.1,3.62-0.16c1.16,0.79,2.32,1.59,3.48,2.38
			C245.45,496.8,243.17,495.77,241.57,492.59z"/>
		<path class="st12" d="M248.67,494.82c-1.16-0.79-2.32-1.59-3.48-2.38c2.84-0.89,5.38-0.73,7.23,1.98
			c-0.41,0.23-0.82,0.46-1.22,0.69C250.35,495.01,249.51,494.92,248.67,494.82z"/>
		<path class="st10" d="M427.84,246.88c-5.57-0.18-4.86,5.47-6.95,8.21c-4.31,5.65-5.98,12.72-6.5,20.03
			c-0.42,5.85-2.59,11.48-2.76,17.48c-0.07,2.43-1.88,4.86-4.83,5.43c-2.62,0.51-4.61-0.28-5.8-2.92c-0.49-1.09-0.91-3.21-2.78-2.2
			c-1.77,0.97-2.95,2.86-2.17,5c0.6,1.64,1.85,3.02,2.71,4.58c3.26,5.91,5.33,12.18,5.87,18.95c0.1,1.3,0.11,2.43-1.42,2.76
			c-1.26,0.27-2.27-0.12-3.06-1.25c-1.59-2.26-2.47-6.84-6-5c-3.14,1.63-0.54,5.59,0.29,8.12c1.66,5.05-0.81,11.5,5.04,15.2
			c0.76,0.48,0.97,1.89,0.05,2.64c-0.98,0.79-1.79-0.1-2.54-0.72c-0.91-0.75-1.85-1.48-2.78-2.22c-2.06-2.16-2.12-4.84-2.49-7.66
			c-1.24-9.5-1.67-19.15-4.86-28.32c5.29-5.58,7.6-12.59,9.22-19.84c0.45-2,1.64-4.81-1.72-5.98c-5.84-2.18-7.05,3.57-9.97,6.08
			c-5.04,4.32-9.47,9.31-17.13,8.33c-2.97-0.38-5.1-3.13-8.28-2.55c-0.72-0.16-1.46-0.27-2.17-0.49c-1.21-0.37-2.41-2.11-3.6-0.85
			c-1.15,1.21-0.53,2.96,0.25,4.38c0.47,0.85,1.01,1.66,1.52,2.48c0.79,4.69,1.61,9.37,4.12,13.53c0.17,2.39,0.33,4.78,0.5,7.17
			c-1.77,1.73-1.48,2.92,0.93,3.57c0.12,1.19,0.24,2.38,0.36,3.57c-1.42,0.8-1.2,2.17-1.19,3.47c-2.9,2.4-2.9,6.06-3.45,9.23
			c-1.81,10.48-5.37,14.11-16.08,14.66c-4.02,0.21-6.97,2.24-10.28,4.05c-6.82,3.74-12.63,9.13-20.87,10.57
			c-14.73,2.56-29.27,6.22-43.96,9.05c-2.57,0.49-4.68,3.68-7.04,2.21c-4.69-2.94-7.66-2.39-9.7,2.84c-0.21,0.54-1.31,1.14-1.9,1.06
			c-3.62-0.51-4.85,1.43-5.43,4.59c-0.29,1.6-1.49,2.91-3.45,2.52c-2.22-0.43-2.21-2.23-1.59-3.72c1.13-2.72-0.22-4.59-1.75-6.43
			c-1.02-1.23-2.34-2.37-2.1-4.09c0.86-6.01-1.89-11.19-3.59-16.61c1.68-0.07,3.09,0.24,3.92,2c1.46,3.08,2.5,5.55,5.43,0.5
			c1.77-3.06,3.27-0.23,4.22,1.95c1.23,2.84-0.3,8.27,4.28,7.93c4.43-0.33,1.23-5.89,3.25-8.55c0.98-1.29-0.58-4.01,1.72-4.6
			c2.38-0.61,2.39,2.11,3.49,3.33c4.52,5.01,9.47,1.43,13.56-0.21c3.61-1.45,6.93-2.5,10.74-2.34c5.02,0.21,8.38-4.98,13.83-4.17
			c1.33,0.2,0.91-2.16-0.47-3.06c-5.37-3.48-4.12-7.53-0.65-11.32c3.63-3.96,4-9.89,8.48-13.32c1.06-0.81,1.19-2.61,0.63-3.94
			c-2.6-6.18,0.49-10.06,4.44-14.62c5.62-6.48,10.17-13.92,14.8-21.19c1.03-1.62,1.88-2.08,3.53-2.34
			c6.86-1.08,14.26-1.57,14.83-11.11c0.02-0.34,0.34-0.83,0.65-0.96c10.65-4.35,13.67-16.31,22.44-22.53
			c0.84-0.59,1.63-1.24,2.67-0.79c1.48,0.64,1.18,1.87,0.76,3.01c-1.08,2.96-1.03,5.84,0.55,8.6c1.56,2.72,3.17,2.76,4.73-0.03
			c3.36,0.08,7.09,0.43,8.1-3.83c0.77-3.21,1.05-6.77-3.34-8.12c-1.22-3.68-1.09-5.48,3.37-7.95c3.87-2.15,7.27-6.82,10.65-10.55
			c2.55-2.82,5.36-4.98,8.27-7.29c2.81-2.23,5.5-3.79,8.91-4.91c4.28-1.41,8.29-3.55,8.26-9.43c-0.03-5.43,1.34-5.99,5.76-2.81
			c1.27,0.91,2.38,1.22,3.79,1.08c0,0-0.01,0.06-0.01,0.06c-0.14,1.8-0.16,3.53,2.34,3.62c0.1,0.32,0.13,0.66,0.1,1
			c-1.67,4.2-1.53,7.78,3.33,9.74C430.03,229.43,431.23,238.33,427.84,246.88z M303.29,342.33c4.29,0.2,8.41-0.1,11.26-3.97
			c0.74,0.25,1.48,0.52,2.22,0.76c1.58,0.5,3.15,2.39,4.81,0.6c1.81-1.95,0.17-3.78-0.93-5.27c-1.87-2.51-3.89-4.96-6.92-6.26
			c-5.93-2.53-11.5,0.55-15.89,9.28c-1.54,3.07-6.39,6.64-3.13,9.46C297.42,349.29,300.1,343.59,303.29,342.33z"/>
		<path class="st14" d="M429.9,220.61c-4.86-1.96-5-5.54-3.33-9.74C430.71,213.08,428.05,217.61,429.9,220.61z"/>
		<path class="st10" d="M425.19,262.35c-1.61-2.03-2.05-3.79,1.06-4.77C426.29,259.26,426.86,261.05,425.19,262.35z"/>
		<path class="st14" d="M426.47,209.87c-2.5-0.09-2.48-1.82-2.34-3.62C426.53,206.41,426.48,208.15,426.47,209.87z"/>
		<path class="st10" d="M426.28,281.46c-1.51-0.28-2.85-0.64-1.08-2.39C426.19,279.58,426.37,280.46,426.28,281.46z"/>
		<path class="st5" d="M304.77,494.73c5.09-1.59,10.39-1.76,15.65-2.16c2.49-0.19,5,0.06,4.57-3.63c9.75-1.93,19.98-2.92,29.28-0.4
			c11.72,3.18,23.03,6.27,35.19,3.96c0.76,2.51,1.33,4.84-2.44,5.45c-1.93,0.31-3.86,1.01-3.63,3.66c-1.14,0.07-2.29,0.13-3.43,0.2
			c-0.14-0.77-0.3-1.67-1.3-1.61c-0.96,0.06-1.06,0.97-1.16,1.75c-1.54,0.15-3.08,0.31-4.62,0.46c-2-0.09-4-0.17-6-0.26
			c-4.17-1.48-8.36-3.2-12.02,1.07c-1.56,0.04-3.12,0.08-4.69,0.11c-2.92-2.56-6.43-0.7-9.61-1.29
			C328.41,500.66,316.28,499.19,304.77,494.73z"/>
		<path class="st5" d="M237.92,488.92c-6.08-0.26-11.93,1.17-17.82,2.35c-1.3,0.26-2.16,0.76-2.43,2.08
			c-1.58,0.1-3.15,0.19-4.73,0.29c-3.66-2.31-7.71-0.6-11.53-1.13c-2.25-0.31-4.68,0.73-7.69-1.44c6.96-2.92,13.44-5.07,20.05-6.99
			c2.62-0.76,6.15,0.27,7.6-3.28c10.64-0.3,21.3-0.06,31.92-1.28c3.16-0.36,6.83-0.49,8.71,3.28
			C254.1,485.36,245.63,485.66,237.92,488.92z"/>
		<path class="st12" d="M263.17,496.87c-1.76,0.63-3.27,0.56-4-1.52C260.91,494.76,262.51,494.57,263.17,496.87z"/>
		<path class="st12" d="M275.14,499.13c-1.76,0.71-3.27,0.7-4.04-1.41C272.82,497.12,274.38,496.96,275.14,499.13z"/>
		<path class="st12" d="M288.27,501.57c-1.76,0.64-3.28,0.63-4-1.5C286.01,499.48,287.56,499.4,288.27,501.57z"/>
		<path class="st12" d="M267.78,497.43c-0.94,1.18-1.7,0.98-2.32-0.3C266.41,495.9,267.16,496.16,267.78,497.43z"/>
		<path class="st5" d="M298.63,493c1.57-0.58,2.39,0.15,2.8,1.6C299.96,495.01,299.05,494.43,298.63,493z"/>
		<path class="st3" d="M52.01,459.96c5.66-0.8,11.4-2.79,16.75,1.11C63.15,461.22,57.43,462.92,52.01,459.96z"/>
		<path class="st3" d="M75.86,461.27c3.57-1.6,7.12-1.68,10.64,0.15C82.92,463.11,79.37,463.3,75.86,461.27z"/>
		<path class="st3" d="M135.03,462.07c2.35-0.42,4.87-1.69,6.55,1.29C139.19,463.96,136.78,464.67,135.03,462.07z"/>
		<path class="st5" d="M408.52,479.38c0.08,3.2,0.16,6.41,0.25,9.61c-0.15,0.36-0.27,0.73-0.34,1.11c-2.72,0.39-4.24,2-4.73,4.65
			c-0.74,0.14-1.49,0.27-2.23,0.4c-0.81-0.04-1.62-0.08-2.42-0.12c-1.59-1.81-4.33-2.93-3.65-6.1c0.57-7.74,2.43-9.39,10.81-9.56
			C406.97,479.38,407.74,479.38,408.52,479.38z"/>
		<path class="st12" d="M395.39,488.95c-0.68,3.17,2.06,4.29,3.65,6.1c-1.33,2.42-5.43,1.15-6.05,4.52
			c-1.52,0.14-3.04,0.28-4.56,0.42c-1.58-0.37-2.39,0.35-2.65,1.86c-0.8-0.07-1.59-0.15-2.39-0.23c-0.24-2.65,1.7-3.35,3.63-3.66
			c3.78-0.6,3.2-2.93,2.44-5.45C390.71,490.11,392.94,489.35,395.39,488.95z"/>
		<path class="st12" d="M354.85,503.23c3.66-4.27,7.85-2.54,12.02-1.07c-0.06,0.68-0.12,1.36-0.17,2.04
			c-3.16,0.09-6.32,0.18-9.48,0.27C356.73,503.49,355.79,503.35,354.85,503.23z"/>
		<path class="st11" d="M392.98,499.56c0.63-3.37,4.72-2.1,6.05-4.52c0.81,0.04,1.62,0.08,2.42,0.12
			C399.85,498.98,396.1,498.66,392.98,499.56z"/>
		<path class="st11" d="M354.85,503.23c0.94,0.13,1.88,0.26,2.37,1.25c-2.31,1.78-4.67,1.65-7.06,0.18c0-0.44,0-0.88,0-1.32
			C351.72,503.3,353.28,503.26,354.85,503.23z"/>
		<path class="st11" d="M366.69,504.2c0.06-0.68,0.11-1.36,0.17-2.04c2,0.09,4,0.17,6,0.26C371.57,505.65,368.9,504.1,366.69,504.2z
			"/>
		<path class="st11" d="M403.69,494.76c0.49-2.65,2.01-4.27,4.73-4.65C408.18,493.02,406.65,494.61,403.69,494.76z"/>
		<path class="st12" d="M377.49,501.96c0.11-0.78,0.2-1.69,1.16-1.75c1-0.07,1.15,0.83,1.3,1.61
			C379.13,501.86,378.31,501.91,377.49,501.96z"/>
		<path class="st11" d="M385.77,501.84c0.26-1.51,1.07-2.23,2.65-1.86C388.11,501.42,387.28,502.12,385.77,501.84z"/>
		<path class="st2" d="M292.38,223.11c-3.39-0.37-6.61-0.25-6.65-4.61c-0.08-9.52,2.32-15.59,6.13-15.41
			c3.27,0.15,13.35,11.36,12.29,14.91C302.39,223.86,295.88,220.81,292.38,223.11z"/>
		<path class="st7" d="M197.4,201.55c-0.03,1.1-0.05,2.21-0.08,3.31c-2.25,0.67-4.42,1.46-6.88,1.45c-6.84-0.05-10.5-5.93-7.6-12.36
			c1.8-3.99,5.2-5.62,9.09-4.98c3.94,0.65,5.93,3.57,5.47,7.84C197.23,198.37,197.39,199.97,197.4,201.55z"/>
		<path class="st2" d="M221.2,170.8c-0.88,12.35-1.38,13.19-7.22,12.85c-4.01-0.23-8.23-5.17-8-9.37c0.24-4.33,6.07-9.87,10.42-9.59
			C220.63,164.97,220.88,168.34,221.2,170.8z"/>
		<path class="st2" d="M197.4,201.55c-0.01-1.58-0.17-3.17,0-4.73c0.46-4.27-1.53-7.19-5.47-7.84c-3.89-0.64-7.29,0.99-9.09,4.98
			c-2.9,6.43,0.76,12.3,7.6,12.36c2.46,0.02,4.63-0.77,6.88-1.45c0.62,3.19-1.08,5.1-3.87,5.69c-3.84,0.82-8.09,1.73-11.54-0.54
			c-4.5-2.97-4.86-14.09-1.07-18.64c4.92-5.91,11.33-6.82,16.69-2.39C200.91,191.77,200.84,198.37,197.4,201.55z"/>
		<path class="st2" d="M216.62,156.28c-2.37-0.25-5.75-0.19-5.6-2.97c0.16-3.02,3.76-3.9,6.38-3.9c2.2,0,5.1,1.07,4.8,4.09
			C221.88,156.82,218.84,156.07,216.62,156.28z"/>
		<path class="st15" d="M228.5,357.75c1.71,5.42,4.45,10.61,3.59,16.61c-0.25,1.72,1.07,2.87,2.1,4.09
			c1.54,1.84,2.89,3.71,1.75,6.43c-0.62,1.49-0.62,3.29,1.59,3.72c1.96,0.38,3.16-0.92,3.45-2.52c0.58-3.16,1.81-5.09,5.43-4.59
			c0.59,0.08,1.69-0.52,1.9-1.06c2.04-5.22,5.01-5.77,9.7-2.84c2.36,1.48,4.47-1.71,7.04-2.21c14.69-2.83,29.23-6.48,43.96-9.05
			c8.25-1.43,14.05-6.83,20.87-10.57c3.31-1.81,6.26-3.84,10.28-4.05c10.71-0.55,14.27-4.18,16.08-14.66
			c0.55-3.17,0.55-6.82,3.45-9.22c0.55,0.08,1.09,0.16,1.64,0.24c0.2,3.16,0.4,6.31,0.59,9.47c-1.09,3.71-2.88,7.5,1.16,10.66
			c0.04,0.81,0.09,1.62,0.13,2.42c-1.78,2.46-1.93,4.85,0.29,7.15c0.01,7.14,0.01,14.28,0.02,21.42c-2.04,1.46-1.99,3.06-0.3,4.75
			c-0.12,0.8-0.24,1.59-0.36,2.39c-1.55,0.35-2.51,0.91-0.86,2.4c-1.49,7.16-6.05,12.83-9.3,19.13c-1.97,1.55-3.94,3.1-5.91,4.65
			c-2.7-1.66-5.55-2.98-8.65-3.68c-10.8-2.41-21.09,1.14-31.52,2.83c-1.75,0.28-4.1,0.59-4.64,3.1c-6.45-0.2-12.75,0.87-19,2.31
			c-8.01,0.06-15.99,0.46-23.81,2.38c-1.83,0-3.66,0-5.49,0c-0.15-0.36-0.22-0.95-0.48-1.05c-9.68-3.95-16.08-11.62-22.26-19.54
			c-1.72-2.2-3.46-4.63-3.48-7.41c-0.05-9.29-3.23-18.27-2.6-27.61c0.14-2.15,0.38-4.49-2.48-5.31c2.08-4.63,4.15-9.25,6.23-13.88
			C231.22,349.06,228.65,353.39,228.5,357.75z"/>
		<path class="st16" d="M228.62,344.68c-2.08,4.63-4.15,9.25-6.23,13.88c-3.5,1.4-6.99,2.8-10.49,4.19c-0.87,0-1.74,0-2.61,0.01
			c-1.08-0.07-2.15-0.13-3.23-0.2c-0.66-0.13-1.32-0.26-1.98-0.39c0,0,0.01-0.03,0.01-0.03c-1.17-1.14-2.66-1.36-4.19-1.45
			c-5.44-3.97-11.26-7.56-14.23-14.05c-1.5-3.27-2.14-5.98,3.13-4.94c0.34,0.25,0.67,0.5,1.01,0.75c3.68,3.69,6.53,8.47,12.35,9.33
			c9.98,3.33,15.93,0.18,19.66-10.44c2.99-1.28,1.23-4.74,3.01-6.57c1.27,0.48,2.53,0.96,3.8,1.44
			C228.63,339.03,228.62,341.86,228.62,344.68z"/>
		<path class="st2" d="M375.14,248.05c4.39,1.35,4.1,4.9,3.34,8.12c-1.02,4.26-4.75,3.91-8.1,3.83
			C365.78,252.74,367.4,248.66,375.14,248.05z"/>
		<path class="st7" d="M221.83,341.34c-3.73,10.61-9.67,13.77-19.66,10.44c0.41-0.83,0.81-1.65,1.22-2.48
			c3.07-0.53,6.31-0.63,8.38-3.52c2.93-0.2,4.33-2,4.91-4.66c1.73-0.04,2.85-0.91,3.41-2.53
			C220.67,339.51,221.25,340.42,221.83,341.34z"/>
		<path class="st10" d="M203.39,349.3c-0.41,0.83-0.81,1.65-1.22,2.48c-5.82-0.86-8.67-5.64-12.35-9.33
			c1.36-0.06,2.74,0.01,4.08-0.21C199.55,341.3,202.86,343.41,203.39,349.3z"/>
		<path class="st10" d="M221.83,341.34c-0.58-0.92-1.16-1.83-1.74-2.75c0.23-3.29-0.32-7.13,4.85-7.01
			c-0.03,1.06-0.07,2.13-0.1,3.19C223.05,336.6,224.82,340.06,221.83,341.34z"/>
		<path class="st15" d="M224.83,334.77c0.03-1.07,0.07-2.13,0.1-3.19c3.03,0.11,5.78,0.45,3.7,4.63
			C227.36,335.73,226.1,335.25,224.83,334.77z"/>
		<path class="st10" d="M216.68,341.12c-0.58,2.66-1.98,4.46-4.91,4.66C212.17,342.92,213.75,341.31,216.68,341.12z"/>
		<path class="st8" d="M204.08,362.16c0.66,0.13,1.32,0.26,1.98,0.4c0,0.73,0,1.45,0,2.18c-2.41,4.42-5.02,8.83-0.38,13.44
			c0.08,4.32,0.17,8.64,0.25,12.97c-0.21,1.77-0.09,3.35,2.12,3.74c0,2.29,0,4.58,0.01,6.87c-2.56,0.48-4,2.82-5.35,4.39
			c-3.52,4.08-8.6,5.54-12.52,8.79c-11.7,2.23-23.55,3.39-35.08,6.84c-5.67,1.69-10.25,5.67-16.16,6.41c0,0-0.02-0.02-0.02-0.02
			c-0.45-1.66-0.9-3.32-1.36-4.98c-0.02-0.79-0.05-1.58-0.08-2.37c2.44-3.26,5.57-5.43,9.68-6.02c2.33,2.33,5.61,1.98,7.83,1.08
			c6.63-2.68,13.77-1.31,20.39-3.31c4.46-1.35,9.49-1.31,13.09-4.83c9.15-8.95,12.95-19.74,10.88-32.48
			c-0.02-1.06-0.05-2.12-0.07-3.18c3.1-2.17,1.32-6.85,4.62-8.92C204.29,362.89,204.34,362.55,204.08,362.16z"/>
		<path class="st15" d="M126.98,392.59c-4.9-4.11-10.71-3.92-16.64-3.87c-6.29,0.05-12.52-0.99-18.7-2.21
			c-1.5-0.3-2.62-0.79-2.96-2.39c9.69-1.79,19.47-2.77,29.32-2.43C123.78,381.87,126.75,385.74,126.98,392.59z"/>
		<path class="st7" d="M199.36,375.26c2.07,12.74-1.73,23.53-10.88,32.48c-3.6,3.52-8.63,3.48-13.09,4.83
			c-6.62,2-13.76,0.62-20.39,3.31c-2.22,0.9-5.5,1.26-7.83-1.08c-0.01-0.34,0.04-0.67,0.15-1c9.96-1.42,20.05-2.26,29.85-4.41
			c11.67-2.55,19.39-13.76,20.17-27.19C197.5,379.8,196.33,376.88,199.36,375.26z"/>
		<path class="st7" d="M203.91,363.16c-3.3,2.06-1.53,6.75-4.62,8.92c-1.05-3.86-1.38-7.69,0.61-11.39
			c1.53,0.09,3.02,0.31,4.19,1.45C203.92,362.46,203.87,362.8,203.91,363.16z"/>
		<path class="st5" d="M253.69,419.47c1.83,0,3.66,0,5.49,0c3.38,2.91,7.68,3.68,11.7,5.17c5.11,1.89,7.44,7.83,4.11,10.81
			c-4.04,3.61-8.19,7.38-14.43,7.09c-3.09-0.14-6.31,0.49-9.32,1.31c-3.92,1.06-4.37,4.14-1.29,6.99c-3.45,4.27-8.7,6.29-13.32,7.84
			c-7.55,2.53-15.32,5.33-23.57,5.25c-0.82-3.51-3.71-2.43-5.82-2.34c-10.43,0.43-20.15-3.03-30.11-5.22
			c-0.56-0.12-0.91-1.17-1.36-1.78c0.88-0.09,1.76-0.18,2.64-0.27c1.15,0.2,2.36,0.24,3.45,0.62c8.07,2.84,16.06,2.81,23.97-0.57
			c1.52-0.19,2.87-0.99,1.88-2.52c-1.12-1.72-2.86-1.39-4.29,0.05c-2.77-0.02-5.54-0.04-8.32-0.06c-1.43-3.48-3.64-2.71-6.01-1.1
			c-3.17-0.43-6.34-0.85-9.51-1.28c-0.29-1.5-0.64-2.86-2.41-1.09c-2.39-0.01-4.78-0.02-7.17-0.03c-0.47-0.27-1.01-0.84-1.39-0.75
			c-1.6,0.39-2.88,1.49-2.95,3.11c-0.11,2.87,3.54,1.85,4.41,3.86c-5.6,0.73-11.19,1.46-16.79,2.18c4.34-4.81,4.34-4.81-1.77-9.87
			c-0.3-0.25-0.74-0.44-0.89-0.76c-1.48-3.15-6.26-5.32-4.97-8.9c1.53-4.28,5.57,0.3,8.43-0.7c0.9-0.31,1.96-0.14,2.95-0.18
			c5.85,0,11.71,0.01,17.57,0.01c2.9-0.5,6.58,2.03,8.54-2.17c2.04-0.58,4.92,1.24,6.02-2.09c2.76-0.59,5.53-1.18,8.29-1.77
			c1.68,1.98,2.03,0.5,2.41-0.92c0.38,0.01,0.76-0.04,1.13-0.14c9.11-0.06,18.12,0.14,27.16,2.12c9.04,1.98,14.8-3.72,14.23-12.71
			C246.17,418.83,249.73,421.92,253.69,419.47z"/>
		<path class="st11" d="M189.18,432.06c-1.09,3.32-3.97,1.5-6.02,2.08c-2.88,0.59-6.54-1.89-8.54,2.18c-5.86,0-11.71,0-17.57-0.01
			c-2.29-3.87-6.61-2.09-9.74-3.52c-2.88-1.32-7.52,0.42-8.36-4.6c5.91-0.74,10.49-4.71,16.16-6.41
			c11.53-3.45,23.38-4.61,35.08-6.84c3.88,0.78,1.98,3.94,2.51,6.09c0.07,3.36-3.93,3.36-4.86,5.89c-1.47,0.25-2.94,0.49-1.2,2.37
			C187.49,430.21,188.33,431.14,189.18,432.06z"/>
		<path class="st5" d="M95.99,428.03c3.76-5.42,9.72-6.73,15.53-8.31c0.01,0.91,0.02,1.81,0.03,2.72
			C106.89,425.76,102.49,429.82,95.99,428.03z"/>
		<path class="st11" d="M131.95,452.13c0.03-3.42-3.88-1.76-4.91-3.82c5.4-2.17,10.63,0.8,15.98,0.57c0.9-0.04,1.68,1.13,1.43,2.22
			c-0.29,1.29-1.38,1.79-2.63,1.96C138.47,453.49,135.19,452.99,131.95,452.13z"/>
		<path class="st5" d="M140.4,456.92c-2.51,3.32-5.04,3.28-7.57,0.02C135.36,456.94,137.88,456.93,140.4,456.92z"/>
		<path class="st11" d="M137.58,423.19c0.45,1.66,0.91,3.32,1.36,4.98C136.16,427.14,133.26,426.15,137.58,423.19z"/>
		<path class="st11" d="M119.93,447.21c-2.07,1.63-3.87,2.11-4.78-1.13C116.81,446.15,118.65,445.48,119.93,447.21z"/>
		<path class="st11" d="M110.39,450.75c1.25-1.54,2.45-1.48,3.61,0.11C112.76,452.26,111.55,452.3,110.39,450.75z"/>
		<path class="st11" d="M116.18,450.88c1.74-0.13,3.51-0.3,3.76,2.16C118.16,453.24,116.56,453.11,116.18,450.88z"/>
		<path class="st11" d="M105.45,448.49c1.59-0.13,2.46,0.59,2.57,2.19C106.46,450.77,105.69,449.94,105.45,448.49z"/>
		<path class="st12" d="M112.58,419.44c0.39-1.5,2.75-2.92,0.19-4.54c0.97-1.27,2.37-1.17,3.72-1.12c1.13,0.04,2.48-0.16,2.99,1.21
			c0.67,1.81-0.86,2.37-2.02,2.96C115.94,418.72,114.5,419.89,112.58,419.44z"/>
		<path class="st12" d="M178.41,454.31c-0.88,0.09-1.76,0.18-2.64,0.27c-1.89-0.01-3.78-0.03-5.68-0.04c-0.87-2-4.52-0.99-4.41-3.85
			c0.06-1.61,1.35-2.72,2.95-3.11c0.38-0.09,0.92,0.48,1.39,0.75c-1.67,3.05-0.17,3.61,2.62,3.71
			C174.72,452.12,177.6,450.77,178.41,454.31z"/>
		<path class="st11" d="M414.64,466.59c2.8-2.42,5.98-2.97,9.49-1.97C421.25,466.65,418.29,468.28,414.64,466.59z"/>
		<path class="st11" d="M427.75,464.24c2.43-2.03,5.1-3.07,8.28-1.95C433.63,464.49,431.06,465.93,427.75,464.24z"/>
		<path class="st11" d="M439.63,461.66c1.71-1.59,3.65-2.39,6.01-1.81C444.05,461.85,442.21,462.97,439.63,461.66z"/>
		<path class="st3" d="M395.39,488.95c-2.45,0.4-4.68,1.17-5.93,3.56c-12.16,2.31-23.47-0.79-35.19-3.96
			c-9.3-2.52-19.53-1.53-29.28,0.4c-13.45,0.16-26.81-0.41-40.01-3.43c-6.54-1.5-11.89-5.25-17.44-8.5
			c-4.52-2.65-8.97-3.95-14.05-3.58c0.25-6.17,1.27-6.99,6.92-5.43c1.51,0.42,3.15,0.79,4.42,1.65c11.8,7.95,23.87,5.55,36.59,2.3
			c6.3-1.61,13.27-7.03,20.55-0.24c1.53,1.43,7.55,2.97,10.24-1.82c3.13-0.05,6.27-0.09,9.4-0.14c13.62-4.25,27.86-0.72,41.63-3.29
			c1.35-0.25,3.03,0.68,4.42,1.33c2.68,1.26,5.13,2.75,8.37,1.29c3.42-1.54,4.86,2.84,7.78,3.13c0.04,0.74,0.07,1.48,0.11,2.23
			c-0.46,2.22,1.56,3.28,2.28,4.95C397.82,479.56,395.95,481.21,395.39,488.95z"/>
		<path class="st12" d="M406.19,479.38c-0.72-1.67-2.75-2.73-2.28-4.95c2.65,0.62,4.46,2.01,4.61,4.95
			C407.74,479.38,406.97,479.38,406.19,479.38z"/>
		<path class="st9" d="M346.8,412.52c1.97-1.55,3.94-3.1,5.9-4.65c1.89,0.09,3.38-0.61,4.76-1.95c5.41-5.27,9.64-11.43,13.85-17.65
			c5.18-7.67,3.36-16.43,4.2-24.78c2.56,0.91,1.97,3.12,2,5.02c0.07,3.56,0.04,7.12,0.05,10.68c-0.01,3.37,0.05,6.75-0.06,10.12
			c-0.16,4.77,2.28,5,5.61,3.14c2.43-1.36,4.68-3,7.68-2.55c1.3,0.88,1.06,2.27,1.15,3.54c-1.09,0.56-1.97,1.32-2.31,2.55
			c-1.99,7.16,5.07,22.3,11.74,26.07c9.78,5.54,18.78,4.11,27.47-2.28c2,1.79,0.04,2.72-0.88,3.78c-5.49,6.36-5.49,6.44,0.97,11.89
			c-0.41,0.75-0.83,1.49-1.24,2.24c-0.43-0.01-0.86-0.02-1.29-0.04c-0.67-0.37-1.33-1.06-2-1.07c-10.49-0.07-21.01-0.59-31.45,0.15
			c-6.31,0.44-13.33,0.69-17.75,6.81c-1.49,0.88-3.06,1.43-4.82,1.09c-0.01-0.76-0.03-1.52-0.04-2.28c1.58-3.19,5.27-4.02,7.42-6.63
			c1.47-1.78,2.8-3.44,1.68-5.78c-1.03-2.15-2.9-2.89-5.3-3.06c-7.24-0.5-12.16,3.74-17.08,8.03c-1.34,1.17-2.73,2.52-1.72,4.56
			c0.82,1.66,2.5,1.6,4.1,1.79c2.85,0.34,5.93-1.05,8.55,1.08c-0.01,0.77-0.02,1.54-0.03,2.31c-1.6,0.04-3.19,0.07-4.79,0.11
			c-1.85-1.8-3-1.33-3.56,1.09c-0.8,0.03-1.61,0.05-2.41,0.08c-1.72-1.96-4.3-1.61-6.38-2.45c-8.3-3.36-18.43,1.51-25.75-5.83
			c-0.05-1.2-0.09-2.39-0.13-3.59c0.66-6.79,6.6-9.29,10.76-13.24C340.48,419.47,343.56,415.89,346.8,412.52z"/>
		<path class="st5" d="M335.71,420.81c-4.16,3.95-10.1,6.46-10.76,13.24c-0.54,0.22-1.55,0.45-1.55,0.68
			c-0.05,7.24-5.19,5.74-9.91,6.79c-8.15,1.8-14.48-2.19-21.49-4.28c-1.66-0.5-3.46-0.55-5.2-0.8c1-6.9,2.01-13.79-3.82-19.34
			c6.25-1.44,12.55-2.51,19-2.3c1.38-0.02,2.82,0.24,4.12-0.09C316.99,411.92,326.69,414.67,335.71,420.81z"/>
		<path class="st6" d="M282.99,417.09c5.83,5.55,4.82,12.45,3.82,19.34c-3.56,1.88-5.07,6.42-9.43,7.28
			c-1.59-0.09-2.36,0.73-2.51,2.24c-1.15,0.06-2.3,0.11-3.44,0.17c-1.58-0.13-2.33,0.73-2.57,2.18c-1.53,0.05-3.07,0.11-4.6,0.16
			c-1.95,0.07-4.28-0.71-4.94,2.21c-3.12,0.06-6.25,0.11-9.37,0.17c-3.08-2.85-2.63-5.92,1.29-6.99c3.02-0.82,6.23-1.45,9.32-1.31
			c6.24,0.28,10.39-3.48,14.43-7.09c3.33-2.98,1-8.91-4.11-10.81c-4.02-1.49-8.32-2.25-11.7-5.17
			C267,417.55,274.98,417.15,282.99,417.09z"/>
		<path class="st11" d="M341.6,469.75c-3.13,0.05-6.27,0.09-9.4,0.14c-6.34-0.07-12.81,0.11-17.04-5.92
			c-2.54-3.62-3.43-7.17,1.49-9.74c0.07,2.37,0,4.75,0.26,7.1c0.13,1.18,1.79,2.69,2.3,1.86c1.48-2.45,2.63-5.27,3.14-8.08
			c0.4-2.23-2.05-1.77-3.48-2.1c0.39-1.59,1.44-2.33,3.03-2.17c7.99,0.78,15.99,1.54,23.96,2.45c2.39,0.27,3.86,1.94,4.19,4.34
			c0.36,2.65-0.01,5.07-2.45,6.83C345.43,466.01,342.48,466.72,341.6,469.75z"/>
		<path class="st8" d="M375.21,443.53c4.42-6.12,11.44-6.37,17.75-6.81c10.44-0.73,20.96-0.22,31.45-0.15c0.67,0,1.34,0.7,2,1.07
			c-0.39,0.47-0.78,0.95-1.18,1.42c-0.36,0.36-0.73,0.73-1.09,1.09c-4.12,2.65-9.79,1.62-13.35,5.6
			C398.79,447.15,387.16,442.71,375.21,443.53z"/>
		<path class="st11" d="M325.09,437.65c7.32,7.34,17.44,2.47,25.75,5.83c2.08,0.84,4.66,0.48,6.38,2.45
			c-9.34,4.12-18.41,3.58-27.28-1.46C327.19,442.9,325.36,440.88,325.09,437.65z"/>
		<path class="st9" d="M318.87,453.01c1.43,0.33,3.88-0.13,3.48,2.1c-0.5,2.81-1.65,5.64-3.14,8.08c-0.5,0.83-2.17-0.67-2.3-1.86
			c-0.26-2.35-0.19-4.73-0.26-7.1C317.39,453.83,318.13,453.42,318.87,453.01z"/>
		<path class="st9" d="M410.79,445.75c3.56-3.98,9.23-2.95,13.35-5.6C421.16,445.52,416.11,445.96,410.79,445.75z"/>
		<path class="st5" d="M259.31,450.66c0.67-2.93,3-2.14,4.94-2.21C263.71,451.66,261.25,450.58,259.31,450.66z"/>
		<path class="st11" d="M359.62,445.84c0.55-2.43,1.71-2.89,3.56-1.09C362.32,446.17,360.95,445.95,359.62,445.84z"/>
		<path class="st5" d="M268.86,448.29c0.24-1.45,0.99-2.3,2.57-2.18C271.29,447.7,270.43,448.42,268.86,448.29z"/>
		<path class="st11" d="M425.23,439.06c0.39-0.47,0.78-0.95,1.18-1.42c0.43,0.01,0.86,0.02,1.29,0.04
			C427.38,439.05,427.21,440.67,425.23,439.06z"/>
		<path class="st11" d="M370.35,442.34c0.01,0.76,0.03,1.52,0.04,2.28c-0.81,0.01-1.61,0.01-2.42,0.02
			c0.01-0.77,0.02-1.54,0.03-2.31C368.78,442.33,369.56,442.34,370.35,442.34z"/>
		<path class="st5" d="M274.87,445.95c0.15-1.51,0.92-2.34,2.51-2.24C277.27,445.27,276.44,446.02,274.87,445.95z"/>
		<path class="st8" d="M375.51,363.48c-0.85,8.35,0.98,17.12-4.2,24.78c-4.2,6.22-8.44,12.38-13.85,17.65
			c-1.38,1.34-2.87,2.04-4.76,1.95c3.26-6.3,7.81-11.97,9.3-19.13c0.99-0.55,1.21-1.37,0.86-2.4c0.12-0.8,0.24-1.59,0.36-2.39
			c1.5-1.5,1.44-3.09,0.3-4.75c-0.01-7.14-0.01-14.28-0.02-21.42c1.28-2.44,1.47-4.83-0.29-7.15c-0.04-0.81-0.09-1.62-0.13-2.42
			c0.03-3.6,1.14-7.31-1.16-10.66c-0.2-3.16-0.4-6.31-0.59-9.47c0.66-1.34,0.75-2.6-0.45-3.71c-0.12-1.19-0.24-2.38-0.36-3.57
			c0.35-1.36,0.5-2.67-0.93-3.57c-0.17-2.39-0.33-4.78-0.5-7.17c1.27-2.4-1.05-6.21,2.97-7.53c0.88,0.6,1.75,1.2,2.63,1.81
			c-0.01,0.73,0.33,0.77,0.86,0.43c1.26,0.37,2.51,0.74,3.77,1.1c-0.02,0.59-0.03,1.18-0.05,1.77c-5.11,13.15-2.83,26.06,1.21,38.93
			c0.36,1.14,1.13,1.52,2.16,1.69C372.48,353.55,375,358.33,375.51,363.48z"/>
		<path class="st8" d="M428.85,419.78c-8.69,6.39-17.69,7.82-27.47,2.28c-6.67-3.78-13.73-18.91-11.74-26.07
			c0.34-1.23,1.22-1.99,2.31-2.55c5.15,4.27,6.07,11.77,11.87,15.56c-0.01,1.67,0.79,2.45,2.48,2.24c7.36,2,14.63,4.61,22.47,3.54
			c0,0,0.01,0.25,0.01,0.25c0.04,0.79,0.09,1.58,0.13,2.37C428.89,418.19,428.87,418.98,428.85,419.78z"/>
		<path class="st3" d="M386.84,304.98c3.19,9.17,3.61,18.83,4.86,28.32c0.37,2.81,0.43,5.5,2.49,7.66
			c3.73,10.54,7.88,20.95,10.09,31.99c0.52,2.62,0.93,5.26,2.34,7.84c4.68,8.57,6.05,9.55,14.96,8c1.52-0.03,2.36-0.85,2.64-2.3
			c1.29-1,2.74-1.53,4.39-1.42c0.58,2.45-2.36,3.6-2.18,5.9c-0.99,0.09-2.06-0.04-2.94,0.32c-7.09,2.91-12.59,0.36-17.36-4.89
			c-0.02-1.52-0.76-2.35-2.31-2.41c-0.82-2.78-1.64-5.56-2.46-8.34c0-0.98-0.2-1.87-1.15-2.39c-0.47-4.76-5.48-7.8-4.88-12.96
			c0.56-3.89-1.62-7.32-2.64-10.71c-2.14-7.07-2.92-15.02-8.95-20.48c-0.11-2.32-0.22-4.65-0.33-6.97c0.08-1.06-0.09-2.01-1.15-2.56
			c0-4.18,0.01-8.35,0.01-12.53C383.4,305.49,385.09,305.16,386.84,304.98z"/>
		<path class="st16" d="M386.84,304.98c-1.75,0.18-3.44,0.51-4.57,2.07c-3.37-0.85-6.77-0.13-10.15-0.09
			c-0.66-1.04-1.3-2.14-2.79-1.08c-1.26-0.37-2.51-0.74-3.77-1.1c-0.28-0.14-0.57-0.29-0.86-0.43c-0.88-0.6-1.75-1.2-2.63-1.8
			c-1.78-2.69-4.6-4.16-7.1-6c-0.51-0.83-1.05-1.63-1.52-2.48c-0.78-1.42-1.4-3.17-0.25-4.38c1.19-1.26,2.39,0.48,3.6,0.85
			c0.71,0.22,1.45,0.33,2.17,0.49c2.69,3.42,6.54,5.02,10.48,6.17c9.43,2.75,14.7,0.39,19.48-8.3c1.79-3.25,3.61-6.49,5.42-9.73
			c3.36,1.17,2.16,3.98,1.72,5.98C394.44,292.39,392.14,299.4,386.84,304.98z"/>
		<path class="st12" d="M403.82,408.99c-5.8-3.78-6.72-11.28-11.87-15.56c-0.09-1.28,0.14-2.66-1.15-3.54
			c0.06-2.11-0.72-4.3,0.85-6.83c5.15,7.64,10.25,14.89,17.43,20.53c4.66,3.65,9.6,5.29,15.26,5.48c3.83,0.13,6.21,1.28,4.43,5.71
			c-7.85,1.07-15.11-1.54-22.48-3.54C406.1,409.79,405.3,409.02,403.82,408.99z"/>
		<path class="st12" d="M375.51,363.48c-0.51-5.15-3.04-9.93-2.86-15.21c-0.97-6.15-1.95-12.29-2.99-18.91
			c4.53,1.32,3.09,5.2,3.81,7.57c2.57,8.45,8.07,15.96,8.39,25.09c0.21,6.07,1.74,12.6-4.3,17.16c-0.01-3.56,0.02-7.12-0.05-10.68
			C377.48,366.61,378.08,364.4,375.51,363.48z"/>
		<path class="st12" d="M383.74,329.1c6.03,5.46,6.81,13.41,8.95,20.48c1.02,3.39,3.2,6.82,2.64,10.71
			c-2.44-1.58-6.8-0.21-7.76-3.44c-2.08-6.95-5.11-13.91-3.79-21.39C384.17,333.22,383.74,331.22,383.74,329.1z"/>
		<path class="st9" d="M486.12,405.51c-0.04,1.6-0.09,3.2-0.13,4.8c-0.74,0.03-1.48,0.05-2.21,0.08c-0.55-3.16-3.04-2.49-5.1-2.51
			c-6.29-0.06-12.59-0.04-18.89-0.06c3.1-3.35,13.47-6.42,16.85-4.11C479.81,405.88,482.94,405.13,486.12,405.51z"/>
		<path class="st3" d="M369.33,305.88c1.48-1.06,2.12,0.04,2.79,1.08c-0.94,0.23-1.89,0.46-2.84,0.69
			C369.3,307.05,369.32,306.46,369.33,305.88z"/>
		<path class="st12" d="M382.26,319.58c1.06,0.55,1.23,1.5,1.15,2.56C382.03,321.73,380.48,321.4,382.26,319.58z"/>
		<path class="st12" d="M403.83,383.99c1.54,0.06,2.28,0.89,2.31,2.41C404.62,386.31,403.81,385.55,403.83,383.99z"/>
		<path class="st12" d="M400.21,373.26c0.95,0.52,1.15,1.41,1.15,2.39C399.87,375.39,398.42,375.11,400.21,373.26z"/>
		<path class="st9" d="M428.91,417.39c-0.04-0.79-0.09-1.58-0.13-2.37c0.86,0.14,2.03,0.09,1.82,1.37
			C430.53,416.81,429.5,417.06,428.91,417.39z"/>
		<path class="st6" d="M424.22,386.48c-0.28,1.45-1.12,2.27-2.64,2.3C421.72,387.16,422.56,386.35,424.22,386.48z"/>
		<path class="st16" d="M303.29,342.33c-3.19,1.25-5.86,6.96-8.58,4.6c-3.26-2.83,1.59-6.39,3.13-9.46
			c4.38-8.73,9.96-11.81,15.89-9.28c3.03,1.3,5.05,3.75,6.92,6.26c1.11,1.49,2.74,3.32,0.93,5.27c-1.66,1.79-3.23-0.1-4.81-0.6
			c-0.75-0.24-1.48-0.51-2.22-0.76C309.49,334.04,306.94,334.94,303.29,342.33z"/>
		<path class="st7" d="M394.35,279.16c-1.81,3.24-3.63,6.48-5.42,9.73c-4.78,8.68-10.05,11.05-19.48,8.3
			c-3.94-1.15-7.79-2.76-10.48-6.17c3.18-0.58,5.31,2.17,8.28,2.55c7.66,0.98,12.09-4,17.13-8.33
			C387.3,282.74,388.51,276.98,394.35,279.16z"/>
		<path class="st2" d="M303.29,342.33c3.65-7.4,6.21-8.3,11.26-3.97C311.7,342.23,307.58,342.54,303.29,342.33z"/>
		<path class="st2" d="M354.97,296.54c2.51,1.84,5.32,3.31,7.1,6c-4.02,1.31-1.71,5.13-2.98,7.53
			C356.58,305.9,355.76,301.23,354.97,296.54z"/>
		<path class="st2" d="M359.6,317.23c1.43,0.9,1.28,2.21,0.93,3.57C358.12,320.16,357.83,318.96,359.6,317.23z"/>
		<path class="st2" d="M360.89,324.38c1.2,1.11,1.11,2.37,0.45,3.71c-0.55-0.08-1.1-0.16-1.64-0.24
			C359.69,326.55,359.47,325.18,360.89,324.38z"/>
		<path class="st3" d="M253.69,419.47c-3.96,2.45-7.52-0.64-11.28-0.82c-5.21-5.06-10.78-9.66-14.21-16.43
			c-5.58-10.98-7.22-22.74-8.16-34.72c-0.24-3.12,0.23-6.68-4.71-3.84c-1.19-0.1-2.54,0.39-3.42-0.91c3.5-1.4,6.99-2.79,10.49-4.19
			c2.85,0.82,2.62,3.16,2.48,5.31c-0.62,9.34,2.56,18.32,2.6,27.61c0.01,2.78,1.76,5.21,3.48,7.41
			c6.18,7.92,12.58,15.59,22.26,19.54C253.47,418.53,253.53,419.11,253.69,419.47z"/>
		<path class="st6" d="M335.71,420.81c-9.02-6.14-18.72-8.89-29.6-6.12c-1.3,0.33-2.74,0.08-4.12,0.09
			c0.53-2.52,2.89-2.82,4.63-3.11c10.43-1.69,20.72-5.24,31.52-2.83c3.1,0.69,5.95,2.02,8.65,3.68
			C343.56,415.89,340.48,419.47,335.71,420.81z"/>
		<path class="st2" d="M361.93,337.55c2.3,3.35,1.18,7.06,1.16,10.66C359.04,345.06,360.83,341.27,361.93,337.55z"/>
		<path class="st2" d="M363.21,350.64c1.76,2.32,1.57,4.71,0.29,7.15C361.28,355.49,361.43,353.1,363.21,350.64z"/>
		<path class="st2" d="M363.52,379.21c1.15,1.66,1.2,3.26-0.3,4.75C361.53,382.26,361.49,380.67,363.52,379.21z"/>
		<path class="st2" d="M362.86,386.34c0.36,1.03,0.13,1.85-0.86,2.4C360.36,387.25,361.32,386.7,362.86,386.34z"/>
		<path class="st9" d="M211.9,362.75c0.87,1.3,2.22,0.81,3.42,0.91c-0.2,2.52-1.92,5.54-3.57,5.47c-7.55-0.31-5.74,4.94-6.07,9.04
			c-4.64-4.61-2.04-9.02,0.37-13.44c1.56,0.13,3.16,0.33,3.23-1.98C210.16,362.76,211.03,362.75,211.9,362.75z"/>
		<path class="st3" d="M209.29,362.76c-0.07,2.31-1.67,2.1-3.23,1.98c0-0.73,0-1.45,0-2.18
			C207.14,362.63,208.21,362.69,209.29,362.76z"/>
		<path class="st3" d="M203.91,363.16c-0.05-0.36,0.01-0.7,0.18-1.02c0,0-0.01,0.03-0.01,0.03
			C204.34,362.55,204.29,362.89,203.91,363.16z"/>
		<path class="st11" d="M205.69,378.18c0.33-4.1-1.48-9.35,6.07-9.04c1.65,0.07,3.37-2.95,3.57-5.47c4.94-2.84,4.46,0.72,4.71,3.84
			c0.94,11.98,2.59,23.74,8.16,34.72c3.43,6.77,9.01,11.37,14.21,16.43c0.56,8.99-5.2,14.69-14.24,12.71
			c-9.05-1.98-18.05-2.18-27.16-2.12c1.5-3.02,4.38-2.56,6.8-2.27c6.28,0.76,8.79-2.54,10.41-8c2.33-7.84-0.72-14.74-2.89-21.87
			c-0.46-1.45,1.09-4.04-1.7-4.09c-1.49-0.03-2.29,1.49-0.68,2.91c-0.02,0.79-0.03,1.59-0.05,2.38c-3.82,0.94-1.87,3.94-2.2,6.13
			c-0.05,1.53-0.09,3.07-0.14,4.6c-1.46-0.34-2.97,1.8-4.24,0.23c-1.19-1.47,0.44-2.83,0.85-4.23c0.32-1.09,0.6-2.18,0.89-3.28
			c0-2.29,0-4.58-0.01-6.87c0.14-1.73,0.31-3.48-2.12-3.74C205.85,386.82,205.77,382.5,205.69,378.18z"/>
		<path class="st9" d="M208.07,401.76c-0.3,1.09-0.57,2.19-0.89,3.28c-0.42,1.4-2.04,2.76-0.85,4.23c1.27,1.57,2.78-0.57,4.24-0.23
			c-4.28,6.49-10.7,9.78-17.85,12c-0.54-2.15,1.36-5.31-2.51-6.09c3.91-3.26,9-4.72,12.52-8.8
			C204.07,404.58,205.51,402.23,208.07,401.76z"/>
		<path class="st9" d="M205.94,391.14c2.43,0.27,2.26,2.01,2.12,3.74C205.85,394.49,205.72,392.91,205.94,391.14z"/>
		<path class="st8" d="M192.71,421.03c7.15-2.22,13.57-5.51,17.85-12c0.05-1.53,0.09-3.07,0.14-4.6c3.47-1.06,1.86-3.94,2.2-6.13
			c0.02-0.79,0.03-1.59,0.05-2.38c0.8,0.39,1.59,0.78,2.39,1.17c2.17,7.12,5.22,14.02,2.89,21.87c-1.62,5.46-4.14,8.77-10.41,8
			c-2.42-0.29-5.3-0.75-6.8,2.27c-0.37,0.1-0.75,0.14-1.13,0.14c-0.97-0.12-1.86-0.06-2.41,0.92c-2.77,0.59-5.53,1.18-8.29,1.77
			c-0.84-0.92-1.69-1.85-2.53-2.77c1.02-0.48,1.22-1.37,1.2-2.37C188.78,424.39,192.78,424.39,192.71,421.03z"/>
		<path class="st11" d="M178.41,454.31c-0.8-3.54-3.69-2.2-5.77-2.27c-2.79-0.1-4.3-0.66-2.62-3.71c2.39,0.01,4.78,0.02,7.17,0.03
			c0.52,0.99,1.39,1.2,2.41,1.09c3.17,0.43,6.34,0.85,9.51,1.28c1.7,2.01,3.95,1.01,6.01,1.1c2.77,0.02,5.54,0.04,8.32,0.06
			c0.8,0.82,1.61,1.64,2.41,2.46c-7.91,3.38-15.9,3.41-23.97,0.57C180.77,454.55,179.56,454.51,178.41,454.31z"/>
		<path class="st12" d="M174.62,436.32c2-4.06,5.66-1.58,8.54-2.18C181.2,438.35,177.52,435.82,174.62,436.32z"/>
		<path class="st12" d="M195.11,451.83c-2.05-0.09-4.31,0.91-6.01-1.1C191.47,449.13,193.68,448.35,195.11,451.83z"/>
		<path class="st12" d="M205.83,454.36c-0.8-0.82-1.61-1.64-2.41-2.46c1.42-1.44,3.17-1.78,4.29-0.05
			C208.7,453.37,207.36,454.16,205.83,454.36z"/>
		<path class="st12" d="M179.59,449.45c-1.02,0.11-1.89-0.1-2.41-1.09C178.95,446.59,179.3,447.95,179.59,449.45z"/>
		<path class="st11" d="M197.47,430.29c0.55-0.97,1.44-1.04,2.41-0.92C199.5,430.79,199.15,432.27,197.47,430.29z"/>
		<path class="st9" d="M187.85,426.92c0.01,1-0.19,1.89-1.2,2.37C184.91,427.41,186.38,427.16,187.85,426.92z"/>
		<path class="st8" d="M370.35,442.34c-0.78,0-1.57,0-2.35-0.01c-2.62-2.13-5.7-0.74-8.55-1.08c-1.6-0.19-3.27-0.13-4.1-1.79
			c-1.01-2.04,0.38-3.39,1.72-4.56c4.92-4.29,9.84-8.53,17.08-8.03c2.4,0.17,4.27,0.91,5.3,3.06c1.12,2.34-0.21,4-1.68,5.78
			C375.61,438.32,371.93,439.15,370.35,442.34z"/>
		<path class="st3" d="M364.7,304.34c0.29,0.14,0.58,0.29,0.86,0.43C365.03,305.11,364.69,305.07,364.7,304.34z"/>
		<path class="st9" d="M403.82,408.99c1.48,0.03,2.29,0.8,2.47,2.25C404.6,411.44,403.81,410.66,403.82,408.99z"/>
		<path class="st9" d="M212.9,398.3c-0.34,2.18,1.27,5.07-2.2,6.13C211.03,402.24,209.08,399.24,212.9,398.3z"/>
		<path class="st9" d="M215.33,397.1c-0.8-0.39-1.59-0.78-2.39-1.17c-1.61-1.43-0.81-2.94,0.68-2.91
			C216.43,393.05,214.88,395.64,215.33,397.1z"/>
	</g>
	<g>
	</g>
</g>
</svg>
